<?xml version="1.0" encoding="UTF-8" standalone="no"?>
<!-- Created with Inkscape (http://www.inkscape.org/) -->

<svg
   xmlns:dc="http://purl.org/dc/elements/1.1/"
   xmlns:cc="http://creativecommons.org/ns#"
   xmlns:rdf="http://www.w3.org/1999/02/22-rdf-syntax-ns#"
   xmlns:svg="http://www.w3.org/2000/svg"
   xmlns="http://www.w3.org/2000/svg"
   xmlns:sodipodi="http://sodipodi.sourceforge.net/DTD/sodipodi-0.dtd"
   xmlns:inkscape="http://www.inkscape.org/namespaces/inkscape"
   id="svg2"
   version="1.1"
   inkscape:version="0.47 r22583"
   width="282.375"
   height="243"
   xml:space="preserve"
   sodipodi:docname="BDFM1_V0.eps"><metadata
     id="metadata8"><rdf:RDF><cc:Work
         rdf:about=""><dc:format>image/svg+xml</dc:format><dc:type
           rdf:resource="http://purl.org/dc/dcmitype/StillImage" /><dc:title></dc:title></cc:Work></rdf:RDF></metadata><defs
     id="defs6"><inkscape:perspective
       sodipodi:type="inkscape:persp3d"
       inkscape:vp_x="0 : 0.5 : 1"
       inkscape:vp_y="0 : 1000 : 0"
       inkscape:vp_z="1 : 0.5 : 1"
       inkscape:persp3d-origin="0.5 : 0.33333333 : 1"
       id="perspective10" /><clipPath
       clipPathUnits="userSpaceOnUse"
       id="clipPath20"><path
         d="M 0,1960 0,0 l 2270,0 0,1960 -2270,0 z"
         id="path22" /></clipPath></defs><sodipodi:namedview
     pagecolor="#ffffff"
     bordercolor="#666666"
     borderopacity="1"
     objecttolerance="10"
     gridtolerance="10"
     guidetolerance="10"
     inkscape:pageopacity="0"
     inkscape:pageshadow="2"
     inkscape:window-width="640"
     inkscape:window-height="498"
     id="namedview4"
     showgrid="false"
     inkscape:zoom="0.23838384"
     inkscape:cx="381.9375"
     inkscape:cy="486.04767"
     inkscape:window-x="0"
     inkscape:window-y="25"
     inkscape:window-maximized="0"
     inkscape:current-layer="g12" /><g
     id="g12"
     inkscape:groupmode="layer"
     inkscape:label="ink_ext_XXXXXX"
     transform="matrix(1.25,0,0,-1.25,-0.5625,243.5625)"><g
       id="g14"
       transform="scale(0.1,0.1)"><g
         id="g16"><g
           id="g18"
           clip-path="url(#clipPath20)"><path
             d="M 99,54 C 99,29.1484 78.8516,9 54,9 29.1484,9 9,29.1484 9,54 9,78.8516 29.1484,99 54,99 78.8516,99 99,78.8516 99,54"
             style="fill:#000000;fill-opacity:1;fill-rule:evenodd;stroke:none"
             id="path24" /><path
             d="M 99,54 C 99,29.1484 78.8516,9 54,9 29.1484,9 9,29.1484 9,54 9,78.8516 29.1484,99 54,99 78.8516,99 99,78.8516 99,54 z"
             style="fill:none;stroke:#000000;stroke-width:9;stroke-linecap:butt;stroke-linejoin:miter;stroke-miterlimit:10;stroke-opacity:1;stroke-dasharray:none"
             id="path26" /><path
             d="m 1179,1899 c 0,-24.85 -20.15,-45 -45,-45 -24.85,0 -45,20.15 -45,45 0,24.85 20.15,45 45,45 24.85,0 45,-20.15 45,-45"
             style="fill:#000000;fill-opacity:1;fill-rule:evenodd;stroke:none"
             id="path28" /><path
             d="m 1179,1899 c 0,-24.85 -20.15,-45 -45,-45 -24.85,0 -45,20.15 -45,45 0,24.85 20.15,45 45,45 24.85,0 45,-20.15 45,-45 z"
             style="fill:none;stroke:#000000;stroke-width:9;stroke-linecap:butt;stroke-linejoin:miter;stroke-miterlimit:10;stroke-opacity:1;stroke-dasharray:none"
             id="path30" /><path
             d="m 2259,63 c 0,-24.8516 -20.15,-45 -45,-45 -24.85,0 -45,20.1484 -45,45 0,24.8516 20.15,45 45,45 24.85,0 45,-20.1484 45,-45"
             style="fill:#000000;fill-opacity:1;fill-rule:evenodd;stroke:none"
             id="path32" /><path
             d="m 2259,63 c 0,-24.8516 -20.15,-45 -45,-45 -24.85,0 -45,20.1484 -45,45 0,24.8516 20.15,45 45,45 24.85,0 45,-20.1484 45,-45 z"
             style="fill:none;stroke:#000000;stroke-width:9;stroke-linecap:butt;stroke-linejoin:miter;stroke-miterlimit:10;stroke-opacity:1;stroke-dasharray:none"
             id="path34" /><path
             d="m 1125,54 c 0,-24.8516 -20.15,-45 -45,-45 -24.85,0 -45,20.1484 -45,45 0,24.8516 20.15,45 45,45 24.85,0 45,-20.1484 45,-45"
             style="fill:#000000;fill-opacity:1;fill-rule:evenodd;stroke:none"
             id="path36" /><path
             d="m 1125,54 c 0,-24.8516 -20.15,-45 -45,-45 -24.85,0 -45,20.1484 -45,45 0,24.8516 20.15,45 45,45 24.85,0 45,-20.1484 45,-45 z"
             style="fill:none;stroke:#000000;stroke-width:9;stroke-linecap:butt;stroke-linejoin:miter;stroke-miterlimit:10;stroke-opacity:1;stroke-dasharray:none"
             id="path38" /><path
             d="m 630,999 c 0,-24.852 -20.148,-45 -45,-45 -24.852,0 -45,20.148 -45,45 0,24.85 20.148,45 45,45 24.852,0 45,-20.15 45,-45"
             style="fill:#000000;fill-opacity:1;fill-rule:evenodd;stroke:none"
             id="path40" /><path
             d="m 630,999 c 0,-24.852 -20.148,-45 -45,-45 -24.852,0 -45,20.148 -45,45 0,24.85 20.148,45 45,45 24.852,0 45,-20.15 45,-45 z"
             style="fill:none;stroke:#000000;stroke-width:9;stroke-linecap:butt;stroke-linejoin:miter;stroke-miterlimit:10;stroke-opacity:1;stroke-dasharray:none"
             id="path42" /><path
             d="m 1701,990 c 0,-24.852 -20.15,-45 -45,-45 -24.85,0 -45,20.148 -45,45 0,24.85 20.15,45 45,45 24.85,0 45,-20.15 45,-45"
             style="fill:#000000;fill-opacity:1;fill-rule:evenodd;stroke:none"
             id="path44" /><path
             d="m 1701,990 c 0,-24.852 -20.15,-45 -45,-45 -24.85,0 -45,20.148 -45,45 0,24.85 20.15,45 45,45 24.85,0 45,-20.15 45,-45 z"
             style="fill:none;stroke:#000000;stroke-width:9;stroke-linecap:butt;stroke-linejoin:miter;stroke-miterlimit:10;stroke-opacity:1;stroke-dasharray:none"
             id="path46" /><path
             d="m 1134,648 c 0,-24.852 -20.15,-45 -45,-45 -24.85,0 -45,20.148 -45,45 0,24.852 20.15,45 45,45 24.85,0 45,-20.148 45,-45"
             style="fill:#000000;fill-opacity:1;fill-rule:evenodd;stroke:none"
             id="path48" /><path
             d="m 1134,648 c 0,-24.852 -20.15,-45 -45,-45 -24.85,0 -45,20.148 -45,45 0,24.852 20.15,45 45,45 24.85,0 45,-20.148 45,-45 z"
             style="fill:none;stroke:#000000;stroke-width:9;stroke-linecap:butt;stroke-linejoin:miter;stroke-miterlimit:10;stroke-opacity:1;stroke-dasharray:none"
             id="path50" /><path
             d="m 63,45 2160,0"
             style="fill:none;stroke:#000000;stroke-width:9;stroke-linecap:butt;stroke-linejoin:miter;stroke-miterlimit:10;stroke-opacity:1;stroke-dasharray:none"
             id="path52" /><path
             d="M 1146.6,1922.4 2226.6,51.6016"
             style="fill:none;stroke:#000000;stroke-width:9;stroke-linecap:butt;stroke-linejoin:miter;stroke-miterlimit:10;stroke-opacity:1;stroke-dasharray:none"
             id="path54" /><path
             d="M 1129.8,1926.6 49.8008,55.8008"
             style="fill:none;stroke:#000000;stroke-width:9;stroke-linecap:butt;stroke-linejoin:miter;stroke-miterlimit:10;stroke-opacity:1;stroke-dasharray:none"
             id="path56" /></g></g></g></g></svg>