<?xml version="1.0" encoding="UTF-8" standalone="no"?>
<!-- Created with Inkscape (http://www.inkscape.org/) -->

<svg
   xmlns:dc="http://purl.org/dc/elements/1.1/"
   xmlns:cc="http://creativecommons.org/ns#"
   xmlns:rdf="http://www.w3.org/1999/02/22-rdf-syntax-ns#"
   xmlns:svg="http://www.w3.org/2000/svg"
   xmlns="http://www.w3.org/2000/svg"
   xmlns:sodipodi="http://sodipodi.sourceforge.net/DTD/sodipodi-0.dtd"
   xmlns:inkscape="http://www.inkscape.org/namespaces/inkscape"
   id="svg2"
   version="1.1"
   inkscape:version="0.47 r22583"
   width="273.22491"
   height="257.92511"
   xml:space="preserve"
   sodipodi:docname="BDFM1_N.eps"><metadata
     id="metadata8"><rdf:RDF><cc:Work
         rdf:about=""><dc:format>image/svg+xml</dc:format><dc:type
           rdf:resource="http://purl.org/dc/dcmitype/StillImage" /><dc:title></dc:title></cc:Work></rdf:RDF></metadata><defs
     id="defs6"><inkscape:perspective
       sodipodi:type="inkscape:persp3d"
       inkscape:vp_x="0 : 0.5 : 1"
       inkscape:vp_y="0 : 1000 : 0"
       inkscape:vp_z="1 : 0.5 : 1"
       inkscape:persp3d-origin="0.5 : 0.33333333 : 1"
       id="perspective10" /><clipPath
       clipPathUnits="userSpaceOnUse"
       id="clipPath20"><path
         d="M 0,2090 0,0 l 2210,0 0,2090 -2210,0 z"
         id="path22" /></clipPath><clipPath
       clipPathUnits="userSpaceOnUse"
       id="clipPath34"><path
         d="M 0,2090 0,0 l 2210,0 0,2090 -2210,0 z m 153.801,-1935.199 -78.6018,45 -17.3984,-31.199 78.5972,-45 0,0 -53.398,51 70.801,-19.801 z"
         clip-rule="evenodd"
         id="path36" /></clipPath><clipPath
       clipPathUnits="userSpaceOnUse"
       id="clipPath46"><path
         d="M 0,2090 0,0 l 2210,0 0,2090 -2210,0 z"
         id="path48" /></clipPath><clipPath
       clipPathUnits="userSpaceOnUse"
       id="clipPath58"><path
         d="M 0,2090 0,0 2210,0 2210,2090 0,2090 z M 2061.2,134.398 2139.8,180 l -18.6,31.199 -78,-45.597 0,0 71.4,20.398 -53.4,-51.602 z"
         clip-rule="evenodd"
         id="path60" /></clipPath><clipPath
       clipPathUnits="userSpaceOnUse"
       id="clipPath70"><path
         d="M 0,2090 0,0 l 2210,0 0,2090 -2210,0 z"
         id="path72" /></clipPath><clipPath
       clipPathUnits="userSpaceOnUse"
       id="clipPath82"><path
         d="M 0,2090 0,0 2210,0 2210,2090 0,2090 z M 1088,303.602 1088,213 l 36,0 0,90.602 0,0 -18,-72 -18,72 z"
         clip-rule="evenodd"
         id="path84" /></clipPath><clipPath
       clipPathUnits="userSpaceOnUse"
       id="clipPath94"><path
         d="M 0,2090 0,0 l 2210,0 0,2090 -2210,0 z"
         id="path96" /></clipPath><clipPath
       clipPathUnits="userSpaceOnUse"
       id="clipPath106"><path
         d="M 0,2090 0,0 l 2210,0 0,2090 -2210,0 z m 644.602,-1033.4 -78.602,45 -17.398,-31.2 78.597,-45 0,0 -53.398,51 70.801,-19.8 z"
         clip-rule="evenodd"
         id="path108" /></clipPath><clipPath
       clipPathUnits="userSpaceOnUse"
       id="clipPath118"><path
         d="M 0,2090 0,0 l 2210,0 0,2090 -2210,0 z"
         id="path120" /></clipPath><clipPath
       clipPathUnits="userSpaceOnUse"
       id="clipPath130"><path
         d="M 0,2090 0,0 l 2210,0 0,2090 -2210,0 z m 1584.2,-1073.6 78.6,45.6 -18.6,31.2 -78,-45.6 0,0 71.4,20.4 -53.4,-51.6 z"
         clip-rule="evenodd"
         id="path132" /></clipPath><clipPath
       clipPathUnits="userSpaceOnUse"
       id="clipPath142"><path
         d="M 0,2090 0,0 l 2210,0 0,2090 -2210,0 z"
         id="path144" /></clipPath><clipPath
       clipPathUnits="userSpaceOnUse"
       id="clipPath154"><path
         d="M 0,2090 0,0 2210,0 2210,2090 0,2090 z M 16.3984,330.602 17,240 l 36,0.602 -0.6016,90.597 0,0 L 35,258.602 l -18.6016,72 z"
         clip-rule="evenodd"
         id="path156" /></clipPath><clipPath
       clipPathUnits="userSpaceOnUse"
       id="clipPath166"><path
         d="M 0,2090 0,0 l 2210,0 0,2090 -2210,0 z"
         id="path168" /></clipPath><clipPath
       clipPathUnits="userSpaceOnUse"
       id="clipPath178"><path
         d="M 0,2090 0,0 l 2210,0 0,2090 -2210,0 z m 2140.4,-1749.801 0.6,-90.597 36,0.597 -0.6,90.602 0,0 -17.4,-72.602 -18.6,72 z"
         clip-rule="evenodd"
         id="path180" /></clipPath><clipPath
       clipPathUnits="userSpaceOnUse"
       id="clipPath190"><path
         d="M 0,2090 0,0 l 2210,0 0,2090 -2210,0 z"
         id="path192" /></clipPath><clipPath
       clipPathUnits="userSpaceOnUse"
       id="clipPath202"><path
         d="M 0,2090 0,0 l 2210,0 0,2090 -2210,0 z m 999.199,-146.6 78.601,45.6 -18.6,31.2 -78.001,-45.6 0,0 71.401,20.4 -53.401,-51.6 z"
         clip-rule="evenodd"
         id="path204" /></clipPath><clipPath
       clipPathUnits="userSpaceOnUse"
       id="clipPath214"><path
         d="M 0,2090 0,0 l 2210,0 0,2090 -2210,0 z"
         id="path216" /></clipPath><clipPath
       clipPathUnits="userSpaceOnUse"
       id="clipPath226"><path
         d="M 0,2090 0,0 l 2210,0 0,2090 -2210,0 z m 1244,-128 -78.6,45 -17.4,-31.2 78.6,-45 0,0 -53.4,51 70.8,-19.8 z"
         clip-rule="evenodd"
         id="path228" /></clipPath><clipPath
       clipPathUnits="userSpaceOnUse"
       id="clipPath238"><path
         d="M 0,2090 0,0 l 2210,0 0,2090 -2210,0 z"
         id="path240" /></clipPath></defs><sodipodi:namedview
     pagecolor="#ffffff"
     bordercolor="#666666"
     borderopacity="1"
     objecttolerance="10"
     gridtolerance="10"
     guidetolerance="10"
     inkscape:pageopacity="0"
     inkscape:pageshadow="2"
     inkscape:window-width="640"
     inkscape:window-height="498"
     id="namedview4"
     showgrid="false"
     inkscape:zoom="0.23838384"
     inkscape:cx="381.4624"
     inkscape:cy="485.52277"
     inkscape:window-x="0"
     inkscape:window-y="25"
     inkscape:window-maximized="0"
     inkscape:current-layer="g12" /><g
     id="g12"
     inkscape:groupmode="layer"
     inkscape:label="ink_ext_XXXXXX"
     transform="matrix(1.25,0,0,-1.25,-1.0376,259.0125)"><g
       id="g14"
       transform="scale(0.1,0.1)"><g
         id="g16"><g
           id="g18"
           clip-path="url(#clipPath20)"><path
             d="M 1109.6,2063.4 2189.6,192.602"
             style="fill:none;stroke:#000000;stroke-width:9;stroke-linecap:butt;stroke-linejoin:miter;stroke-miterlimit:10;stroke-opacity:1;stroke-dasharray:none"
             id="path24" /><path
             d="M 1092.8,2067.6 12.8008,196.801"
             style="fill:none;stroke:#000000;stroke-width:9;stroke-linecap:butt;stroke-linejoin:miter;stroke-miterlimit:10;stroke-opacity:1;stroke-dasharray:none"
             id="path26" /><path
             d="m 26,186 2160,0"
             style="fill:none;stroke:#000000;stroke-width:9;stroke-linecap:butt;stroke-linejoin:miter;stroke-miterlimit:10;stroke-opacity:1;stroke-dasharray:none"
             id="path28" /></g></g><g
         id="g30"><g
           id="g32"
           clip-path="url(#clipPath34)"><path
             d="M 363.199,13.1992 74.6016,179.398"
             style="fill:#000000;fill-opacity:1;fill-rule:evenodd;stroke:none"
             id="path38" /><path
             d="M 363.199,13.1992 74.6016,179.398"
             style="fill:none;stroke:#000000;stroke-width:9;stroke-linecap:butt;stroke-linejoin:miter;stroke-miterlimit:10;stroke-opacity:1;stroke-dasharray:none"
             id="path40" /></g></g><g
         id="g42"><g
           id="g44"
           clip-path="url(#clipPath46)"><path
             d="M 153.801,154.801 83,174.602 l 53.398,-51 17.403,31.199"
             style="fill:#000000;fill-opacity:1;fill-rule:evenodd;stroke:none"
             id="path50" /><path
             d="M 153.801,154.801 83,174.602 l 53.398,-51 17.403,31.199 z"
             style="fill:none;stroke:#000000;stroke-width:4.5;stroke-linecap:butt;stroke-linejoin:miter;stroke-miterlimit:10;stroke-opacity:1;stroke-dasharray:none"
             id="path52" /></g></g><g
         id="g54"><g
           id="g56"
           clip-path="url(#clipPath58)"><path
             d="m 1835,24 288,166.801"
             style="fill:#000000;fill-opacity:1;fill-rule:evenodd;stroke:none"
             id="path62" /><path
             d="m 1835,24 288,166.801"
             style="fill:none;stroke:#000000;stroke-width:9;stroke-linecap:butt;stroke-linejoin:miter;stroke-miterlimit:10;stroke-opacity:1;stroke-dasharray:none"
             id="path64" /></g></g><g
         id="g66"><g
           id="g68"
           clip-path="url(#clipPath70)"><path
             d="m 2061.2,134.398 53.4,51.602 -71.4,-20.398 18,-31.204"
             style="fill:#000000;fill-opacity:1;fill-rule:evenodd;stroke:none"
             id="path74" /><path
             d="m 2061.2,134.398 53.4,51.602 -71.4,-20.398 18,-31.204 z"
             style="fill:none;stroke:#000000;stroke-width:4.5;stroke-linecap:butt;stroke-linejoin:miter;stroke-miterlimit:10;stroke-opacity:1;stroke-dasharray:none"
             id="path76" /></g></g><g
         id="g78"><g
           id="g80"
           clip-path="url(#clipPath82)"><path
             d="m 1106,555 0,-333"
             style="fill:#000000;fill-opacity:1;fill-rule:evenodd;stroke:none"
             id="path86" /><path
             d="m 1106,555 0,-333"
             style="fill:none;stroke:#000000;stroke-width:9;stroke-linecap:butt;stroke-linejoin:miter;stroke-miterlimit:10;stroke-opacity:1;stroke-dasharray:none"
             id="path88" /></g></g><g
         id="g90"><g
           id="g92"
           clip-path="url(#clipPath94)"><path
             d="m 1088,303.602 18,-72 18,72 -36,0"
             style="fill:#000000;fill-opacity:1;fill-rule:evenodd;stroke:none"
             id="path98" /><path
             d="m 1088,303.602 18,-72 18,72 -36,0 z"
             style="fill:none;stroke:#000000;stroke-width:4.5;stroke-linecap:butt;stroke-linejoin:miter;stroke-miterlimit:10;stroke-opacity:1;stroke-dasharray:none"
             id="path100" /></g></g><g
         id="g102"><g
           id="g104"
           clip-path="url(#clipPath106)"><path
             d="M 854,915 565.398,1081.2"
             style="fill:#000000;fill-opacity:1;fill-rule:evenodd;stroke:none"
             id="path110" /><path
             d="M 854,915 565.398,1081.2"
             style="fill:none;stroke:#000000;stroke-width:9;stroke-linecap:butt;stroke-linejoin:miter;stroke-miterlimit:10;stroke-opacity:1;stroke-dasharray:none"
             id="path112" /></g></g><g
         id="g114"><g
           id="g116"
           clip-path="url(#clipPath118)"><path
             d="m 644.602,1056.6 -70.801,19.8 53.398,-51 17.403,31.2"
             style="fill:#000000;fill-opacity:1;fill-rule:evenodd;stroke:none"
             id="path122" /><path
             d="m 644.602,1056.6 -70.801,19.8 53.398,-51 17.403,31.2 z"
             style="fill:none;stroke:#000000;stroke-width:4.5;stroke-linecap:butt;stroke-linejoin:miter;stroke-miterlimit:10;stroke-opacity:1;stroke-dasharray:none"
             id="path124" /></g></g><g
         id="g126"><g
           id="g128"
           clip-path="url(#clipPath130)"><path
             d="m 1358,906 288,166.8"
             style="fill:#000000;fill-opacity:1;fill-rule:evenodd;stroke:none"
             id="path134" /><path
             d="m 1358,906 288,166.8"
             style="fill:none;stroke:#000000;stroke-width:9;stroke-linecap:butt;stroke-linejoin:miter;stroke-miterlimit:10;stroke-opacity:1;stroke-dasharray:none"
             id="path136" /></g></g><g
         id="g138"><g
           id="g140"
           clip-path="url(#clipPath142)"><path
             d="m 1584.2,1016.4 53.4,51.6 -71.4,-20.4 18,-31.2"
             style="fill:#000000;fill-opacity:1;fill-rule:evenodd;stroke:none"
             id="path146" /><path
             d="m 1584.2,1016.4 53.4,51.6 -71.4,-20.4 18,-31.2 z"
             style="fill:none;stroke:#000000;stroke-width:4.5;stroke-linecap:butt;stroke-linejoin:miter;stroke-miterlimit:10;stroke-opacity:1;stroke-dasharray:none"
             id="path148" /></g></g><g
         id="g150"><g
           id="g152"
           clip-path="url(#clipPath154)"><path
             d="M 34.3984,582 35,249"
             style="fill:#000000;fill-opacity:1;fill-rule:evenodd;stroke:none"
             id="path158" /><path
             d="M 34.3984,582 35,249"
             style="fill:none;stroke:#000000;stroke-width:9;stroke-linecap:butt;stroke-linejoin:miter;stroke-miterlimit:10;stroke-opacity:1;stroke-dasharray:none"
             id="path160" /></g></g><g
         id="g162"><g
           id="g164"
           clip-path="url(#clipPath166)"><path
             d="m 16.3984,330.602 18.6016,-72 17.3984,72.597 -36,-0.597"
             style="fill:#000000;fill-opacity:1;fill-rule:evenodd;stroke:none"
             id="path170" /><path
             d="m 16.3984,330.602 18.6016,-72 17.3984,72.597 -36,-0.597 z"
             style="fill:none;stroke:#000000;stroke-width:4.5;stroke-linecap:butt;stroke-linejoin:miter;stroke-miterlimit:10;stroke-opacity:1;stroke-dasharray:none"
             id="path172" /></g></g><g
         id="g174"><g
           id="g176"
           clip-path="url(#clipPath178)"><path
             d="m 2158.4,591.602 0.6,-333"
             style="fill:#000000;fill-opacity:1;fill-rule:evenodd;stroke:none"
             id="path182" /><path
             d="m 2158.4,591.602 0.6,-333"
             style="fill:none;stroke:#000000;stroke-width:9;stroke-linecap:butt;stroke-linejoin:miter;stroke-miterlimit:10;stroke-opacity:1;stroke-dasharray:none"
             id="path184" /></g></g><g
         id="g186"><g
           id="g188"
           clip-path="url(#clipPath190)"><path
             d="m 2140.4,340.199 18.6,-72 17.4,72.602 -36,-0.602"
             style="fill:#000000;fill-opacity:1;fill-rule:evenodd;stroke:none"
             id="path194" /><path
             d="m 2140.4,340.199 18.6,-72 17.4,72.602 -36,-0.602 z"
             style="fill:none;stroke:#000000;stroke-width:4.5;stroke-linecap:butt;stroke-linejoin:miter;stroke-miterlimit:10;stroke-opacity:1;stroke-dasharray:none"
             id="path196" /></g></g><g
         id="g198"><g
           id="g200"
           clip-path="url(#clipPath202)"><path
             d="m 773,1833 288,166.8"
             style="fill:#000000;fill-opacity:1;fill-rule:evenodd;stroke:none"
             id="path206" /><path
             d="m 773,1833 288,166.8"
             style="fill:none;stroke:#000000;stroke-width:9;stroke-linecap:butt;stroke-linejoin:miter;stroke-miterlimit:10;stroke-opacity:1;stroke-dasharray:none"
             id="path208" /></g></g><g
         id="g210"><g
           id="g212"
           clip-path="url(#clipPath214)"><path
             d="m 999.199,1943.4 53.401,51.6 -71.401,-20.4 18,-31.2"
             style="fill:#000000;fill-opacity:1;fill-rule:evenodd;stroke:none"
             id="path218" /><path
             d="m 999.199,1943.4 53.401,51.6 -71.401,-20.4 18,-31.2 z"
             style="fill:none;stroke:#000000;stroke-width:4.5;stroke-linecap:butt;stroke-linejoin:miter;stroke-miterlimit:10;stroke-opacity:1;stroke-dasharray:none"
             id="path220" /></g></g><g
         id="g222"><g
           id="g224"
           clip-path="url(#clipPath226)"><path
             d="m 1453.4,1820.4 -288.6,166.2"
             style="fill:#000000;fill-opacity:1;fill-rule:evenodd;stroke:none"
             id="path230" /><path
             d="m 1453.4,1820.4 -288.6,166.2"
             style="fill:none;stroke:#000000;stroke-width:9;stroke-linecap:butt;stroke-linejoin:miter;stroke-miterlimit:10;stroke-opacity:1;stroke-dasharray:none"
             id="path232" /></g></g><g
         id="g234"><g
           id="g236"
           clip-path="url(#clipPath238)"><path
             d="m 1244,1962 -70.8,19.8 53.4,-51 17.4,31.2"
             style="fill:#000000;fill-opacity:1;fill-rule:evenodd;stroke:none"
             id="path242" /><path
             d="m 1244,1962 -70.8,19.8 53.4,-51 17.4,31.2 z"
             style="fill:none;stroke:#000000;stroke-width:4.5;stroke-linecap:butt;stroke-linejoin:miter;stroke-miterlimit:10;stroke-opacity:1;stroke-dasharray:none"
             id="path244" /></g></g></g></g></svg>