<?xml version="1.0" encoding="UTF-8" standalone="no"?>
<!-- Created with Inkscape (http://www.inkscape.org/) -->

<svg
   xmlns:dc="http://purl.org/dc/elements/1.1/"
   xmlns:cc="http://creativecommons.org/ns#"
   xmlns:rdf="http://www.w3.org/1999/02/22-rdf-syntax-ns#"
   xmlns:svg="http://www.w3.org/2000/svg"
   xmlns="http://www.w3.org/2000/svg"
   xmlns:sodipodi="http://sodipodi.sourceforge.net/DTD/sodipodi-0.dtd"
   xmlns:inkscape="http://www.inkscape.org/namespaces/inkscape"
   id="svg2"
   version="1.1"
   inkscape:version="0.47 r22583"
   width="352.5"
   height="303.8999"
   xml:space="preserve"
   sodipodi:docname="BDFM1_V1.eps"><metadata
     id="metadata8"><rdf:RDF><cc:Work
         rdf:about=""><dc:format>image/svg+xml</dc:format><dc:type
           rdf:resource="http://purl.org/dc/dcmitype/StillImage" /><dc:title></dc:title></cc:Work></rdf:RDF></metadata><defs
     id="defs6"><inkscape:perspective
       sodipodi:type="inkscape:persp3d"
       inkscape:vp_x="0 : 0.5 : 1"
       inkscape:vp_y="0 : 1000 : 0"
       inkscape:vp_z="1 : 0.5 : 1"
       inkscape:persp3d-origin="0.5 : 0.33333333 : 1"
       id="perspective10" /><clipPath
       clipPathUnits="userSpaceOnUse"
       id="clipPath20"><path
         d="M 0,2450 0,0 l 2840,0 0,2450 -2840,0 z"
         id="path22" /></clipPath><clipPath
       clipPathUnits="userSpaceOnUse"
       id="clipPath34"><path
         d="M 0,2450 0,0 l 2840,0 0,2450 -2840,0 z m 1446.4,-2121 90.6,0 0,36 -90.6,0 0,0 72,-18 -72,-18 z"
         clip-rule="evenodd"
         id="path36" /></clipPath><clipPath
       clipPathUnits="userSpaceOnUse"
       id="clipPath46"><path
         d="M 0,2450 0,0 l 2840,0 0,2450 -2840,0 z"
         id="path48" /></clipPath><clipPath
       clipPathUnits="userSpaceOnUse"
       id="clipPath58"><path
         d="M 0,2450 0,0 l 2840,0 0,2450 -2840,0 z m 845.199,-1334.4 -45,-78.6 31.199,-17.4 45,78.6 0,0 -51,-54 19.801,71.4 z"
         clip-rule="evenodd"
         id="path60" /></clipPath><clipPath
       clipPathUnits="userSpaceOnUse"
       id="clipPath70"><path
         d="M 0,2450 0,0 l 2840,0 0,2450 -2840,0 z"
         id="path72" /></clipPath><clipPath
       clipPathUnits="userSpaceOnUse"
       id="clipPath82"><path
         d="M 0,2450 0,0 l 2840,0 0,2450 -2840,0 z m 1890.4,-1171.8 -45.6,78.6 -31.2,-18.6 45.6,-78 0,0 -20.4,70.8 51.6,-52.8 z"
         clip-rule="evenodd"
         id="path84" /></clipPath><clipPath
       clipPathUnits="userSpaceOnUse"
       id="clipPath94"><path
         d="M 0,2450 0,0 l 2840,0 0,2450 -2840,0 z"
         id="path96" /></clipPath><clipPath
       clipPathUnits="userSpaceOnUse"
       id="clipPath106"><path
         d="M 0,2450 0,0 l 2840,0 0,2450 -2840,0 z"
         id="path108" /></clipPath><clipPath
       clipPathUnits="userSpaceOnUse"
       id="clipPath112"><path
         d="M 0,2450 0,0 l 2840,0 0,2450 -2840,0 z m 1255.6,-76.2 -45.6,78.6 -31.2,-18.6 45.6,-78 0,0 -20.4,70.8 51.6,-52.8 z"
         clip-rule="evenodd"
         id="path114" /></clipPath><clipPath
       clipPathUnits="userSpaceOnUse"
       id="clipPath124"><path
         d="M 0,2450 0,0 l 2840,0 0,2450 -2840,0 z"
         id="path126" /></clipPath><clipPath
       clipPathUnits="userSpaceOnUse"
       id="clipPath136"><path
         d="M 0,2450 0,0 2840,0 2840,2450 0,2450 z M 264.398,338.602 355,339.199 l -0.602,36 -90.597,-0.597 0,0 72.597,-18 -72,-18 z"
         clip-rule="evenodd"
         id="path138" /></clipPath><clipPath
       clipPathUnits="userSpaceOnUse"
       id="clipPath148"><path
         d="M 0,2450 0,0 l 2840,0 0,2450 -2840,0 z"
         id="path150" /></clipPath><clipPath
       clipPathUnits="userSpaceOnUse"
       id="clipPath160"><path
         d="M 0,2450 0,0 l 2840,0 0,2450 -2840,0 z"
         id="path162" /></clipPath><clipPath
       clipPathUnits="userSpaceOnUse"
       id="clipPath166"><path
         d="M 0,2450 0,0 2840,0 2840,2450 0,2450 z M 263.199,92.6016 218.199,14 l 31.199,-17.39844 45,78.59764 0,0 -51,-54 19.801,71.4024 z"
         clip-rule="evenodd"
         id="path168" /></clipPath><clipPath
       clipPathUnits="userSpaceOnUse"
       id="clipPath178"><path
         d="M 0,2450 0,0 l 2840,0 0,2450 -2840,0 z"
         id="path180" /></clipPath><clipPath
       clipPathUnits="userSpaceOnUse"
       id="clipPath190"><path
         d="M 0,2450 0,0 l 2840,0 0,2450 -2840,0 z m 1487.2,-224.4 -45,-78.6 31.2,-17.4 45,78.6 0,0 -51,-54 19.8,71.4 z"
         clip-rule="evenodd"
         id="path192" /></clipPath><clipPath
       clipPathUnits="userSpaceOnUse"
       id="clipPath202"><path
         d="M 0,2450 0,0 l 2840,0 0,2450 -2840,0 z"
         id="path204" /></clipPath><clipPath
       clipPathUnits="userSpaceOnUse"
       id="clipPath214"><path
         d="M 0,2450 0,0 2840,0 2840,2450 0,2450 z M 2462.8,245 2417.2,323.602 2386,305 l 45.6,-78 0,0 -20.4,70.801 51.6,-52.801 z"
         clip-rule="evenodd"
         id="path216" /></clipPath><clipPath
       clipPathUnits="userSpaceOnUse"
       id="clipPath226"><path
         d="M 0,2450 0,0 l 2840,0 0,2450 -2840,0 z"
         id="path228" /></clipPath><clipPath
       clipPathUnits="userSpaceOnUse"
       id="clipPath238"><path
         d="M 0,2450 0,0 l 2840,0 0,2450 -2840,0 z m 2742.4,-2120.398 90.6,0.597 -0.6,36 -90.6,-0.597 0,0 72.6,-18 -72,-18 z"
         clip-rule="evenodd"
         id="path240" /></clipPath><clipPath
       clipPathUnits="userSpaceOnUse"
       id="clipPath250"><path
         d="M 0,2450 0,0 l 2840,0 0,2450 -2840,0 z"
         id="path252" /></clipPath></defs><sodipodi:namedview
     pagecolor="#ffffff"
     bordercolor="#666666"
     borderopacity="1"
     objecttolerance="10"
     gridtolerance="10"
     guidetolerance="10"
     inkscape:pageopacity="0"
     inkscape:pageshadow="2"
     inkscape:window-width="640"
     inkscape:window-height="498"
     id="namedview4"
     showgrid="false"
     inkscape:zoom="0.23838384"
     inkscape:cx="381.4375"
     inkscape:cy="485.57257"
     inkscape:window-x="0"
     inkscape:window-y="25"
     inkscape:window-maximized="0"
     inkscape:current-layer="g12" /><g
     id="g12"
     inkscape:groupmode="layer"
     inkscape:label="ink_ext_XXXXXX"
     transform="matrix(1.25,0,0,-1.25,-1.0625,304.9375)"><g
       id="g14"
       transform="scale(0.1,0.1)"><g
         id="g16"><g
           id="g18"
           clip-path="url(#clipPath20)"><path
             d="m 340,302 2160,0"
             style="fill:none;stroke:#000000;stroke-width:9;stroke-linecap:butt;stroke-linejoin:miter;stroke-miterlimit:10;stroke-opacity:1;stroke-dasharray:none"
             id="path24" /><path
             d="M 1423.6,2179.4 2503.6,308.602"
             style="fill:none;stroke:#000000;stroke-width:9;stroke-linecap:butt;stroke-linejoin:miter;stroke-miterlimit:10;stroke-opacity:1;stroke-dasharray:none"
             id="path26" /><path
             d="M 1406.8,2183.6 326.801,312.801"
             style="fill:none;stroke:#000000;stroke-width:9;stroke-linecap:butt;stroke-linejoin:miter;stroke-miterlimit:10;stroke-opacity:1;stroke-dasharray:none"
             id="path28" /></g></g><g
         id="g30"><g
           id="g32"
           clip-path="url(#clipPath34)"><path
             d="m 1195,347 333,0"
             style="fill:#000000;fill-opacity:1;fill-rule:evenodd;stroke:none"
             id="path38" /><path
             d="m 1195,347 333,0"
             style="fill:none;stroke:#000000;stroke-width:9;stroke-linecap:butt;stroke-linejoin:miter;stroke-miterlimit:10;stroke-opacity:1;stroke-dasharray:none"
             id="path40" /></g></g><g
         id="g42"><g
           id="g44"
           clip-path="url(#clipPath46)"><path
             d="m 1446.4,329 72,18 -72,18 0,-36"
             style="fill:#000000;fill-opacity:1;fill-rule:evenodd;stroke:none"
             id="path50" /><path
             d="m 1446.4,329 72,18 -72,18 0,-36 z"
             style="fill:none;stroke:#000000;stroke-width:4.5;stroke-linecap:butt;stroke-linejoin:miter;stroke-miterlimit:10;stroke-opacity:1;stroke-dasharray:none"
             id="path52" /></g></g><g
         id="g54"><g
           id="g56"
           clip-path="url(#clipPath58)"><path
             d="M 986.801,1324.4 820.602,1035.8"
             style="fill:#000000;fill-opacity:1;fill-rule:evenodd;stroke:none"
             id="path62" /><path
             d="M 986.801,1324.4 820.602,1035.8"
             style="fill:none;stroke:#000000;stroke-width:9;stroke-linecap:butt;stroke-linejoin:miter;stroke-miterlimit:10;stroke-opacity:1;stroke-dasharray:none"
             id="path64" /></g></g><g
         id="g66"><g
           id="g68"
           clip-path="url(#clipPath70)"><path
             d="m 845.199,1115.6 -19.801,-71.4 51,54 -31.199,17.4"
             style="fill:#000000;fill-opacity:1;fill-rule:evenodd;stroke:none"
             id="path74" /><path
             d="m 845.199,1115.6 -19.801,-71.4 51,54 -31.199,17.4 z"
             style="fill:none;stroke:#000000;stroke-width:4.5;stroke-linecap:butt;stroke-linejoin:miter;stroke-miterlimit:10;stroke-opacity:1;stroke-dasharray:none"
             id="path76" /></g></g><g
         id="g78"><g
           id="g80"
           clip-path="url(#clipPath82)"><path
             d="m 2000.8,1051.4 -166.8,288"
             style="fill:#000000;fill-opacity:1;fill-rule:evenodd;stroke:none"
             id="path86" /><path
             d="m 2000.8,1051.4 -166.8,288"
             style="fill:none;stroke:#000000;stroke-width:9;stroke-linecap:butt;stroke-linejoin:miter;stroke-miterlimit:10;stroke-opacity:1;stroke-dasharray:none"
             id="path88" /></g></g><g
         id="g90"><g
           id="g92"
           clip-path="url(#clipPath94)"><path
             d="m 1890.4,1278.2 -51.6,52.8 20.4,-70.8 31.2,18"
             style="fill:#000000;fill-opacity:1;fill-rule:evenodd;stroke:none"
             id="path98" /><path
             d="m 1890.4,1278.2 -51.6,52.8 20.4,-70.8 31.2,18 z"
             style="fill:none;stroke:#000000;stroke-width:4.5;stroke-linecap:butt;stroke-linejoin:miter;stroke-miterlimit:10;stroke-opacity:1;stroke-dasharray:none"
             id="path100" /></g></g><g
         id="g102"><g
           id="g104"
           clip-path="url(#clipPath106)"><g
             id="g110"
             clip-path="url(#clipPath112)"><path
               d="m 1366,2147 -166.8,288"
               style="fill:#000000;fill-opacity:1;fill-rule:evenodd;stroke:none"
               id="path116" /><path
               d="m 1366,2147 -166.8,288"
               style="fill:none;stroke:#000000;stroke-width:9;stroke-linecap:butt;stroke-linejoin:miter;stroke-miterlimit:10;stroke-opacity:1;stroke-dasharray:none"
               id="path118" /></g></g></g><g
         id="g120"><g
           id="g122"
           clip-path="url(#clipPath124)"><path
             d="m 1255.6,2373.8 -51.6,52.8 20.4,-70.8 31.2,18"
             style="fill:#000000;fill-opacity:1;fill-rule:evenodd;stroke:none"
             id="path128" /><path
             d="m 1255.6,2373.8 -51.6,52.8 20.4,-70.8 31.2,18 z"
             style="fill:none;stroke:#000000;stroke-width:4.5;stroke-linecap:butt;stroke-linejoin:miter;stroke-miterlimit:10;stroke-opacity:1;stroke-dasharray:none"
             id="path130" /></g></g><g
         id="g132"><g
           id="g134"
           clip-path="url(#clipPath136)"><path
             d="m 13,356 333,0.602"
             style="fill:#000000;fill-opacity:1;fill-rule:evenodd;stroke:none"
             id="path140" /><path
             d="m 13,356 333,0.602"
             style="fill:none;stroke:#000000;stroke-width:9;stroke-linecap:butt;stroke-linejoin:miter;stroke-miterlimit:10;stroke-opacity:1;stroke-dasharray:none"
             id="path142" /></g></g><g
         id="g144"><g
           id="g146"
           clip-path="url(#clipPath148)"><path
             d="m 264.398,338.602 72,18 -72.597,18 0.597,-36"
             style="fill:#000000;fill-opacity:1;fill-rule:evenodd;stroke:none"
             id="path152" /><path
             d="m 264.398,338.602 72,18 -72.597,18 0.597,-36 z"
             style="fill:none;stroke:#000000;stroke-width:4.5;stroke-linecap:butt;stroke-linejoin:miter;stroke-miterlimit:10;stroke-opacity:1;stroke-dasharray:none"
             id="path154" /></g></g><g
         id="g156"><g
           id="g158"
           clip-path="url(#clipPath160)"><g
             id="g164"
             clip-path="url(#clipPath166)"><path
               d="M 404.801,301.398 238.602,12.8008"
               style="fill:#000000;fill-opacity:1;fill-rule:evenodd;stroke:none"
               id="path170" /><path
               d="M 404.801,301.398 238.602,12.8008"
               style="fill:none;stroke:#000000;stroke-width:9;stroke-linecap:butt;stroke-linejoin:miter;stroke-miterlimit:10;stroke-opacity:1;stroke-dasharray:none"
               id="path172" /></g></g></g><g
         id="g174"><g
           id="g176"
           clip-path="url(#clipPath178)"><path
             d="m 263.199,92.6016 -19.801,-71.4024 51,54 -31.199,17.4024"
             style="fill:#000000;fill-opacity:1;fill-rule:evenodd;stroke:none"
             id="path182" /><path
             d="m 263.199,92.6016 -19.801,-71.4024 51,54 -31.199,17.4024 z"
             style="fill:none;stroke:#000000;stroke-width:4.5;stroke-linecap:butt;stroke-linejoin:miter;stroke-miterlimit:10;stroke-opacity:1;stroke-dasharray:none"
             id="path184" /></g></g><g
         id="g186"><g
           id="g188"
           clip-path="url(#clipPath190)"><path
             d="M 1628.8,2434.4 1462.6,2145.8"
             style="fill:#000000;fill-opacity:1;fill-rule:evenodd;stroke:none"
             id="path194" /><path
             d="M 1628.8,2434.4 1462.6,2145.8"
             style="fill:none;stroke:#000000;stroke-width:9;stroke-linecap:butt;stroke-linejoin:miter;stroke-miterlimit:10;stroke-opacity:1;stroke-dasharray:none"
             id="path196" /></g></g><g
         id="g198"><g
           id="g200"
           clip-path="url(#clipPath202)"><path
             d="m 1487.2,2225.6 -19.8,-71.4 51,54 -31.2,17.4"
             style="fill:#000000;fill-opacity:1;fill-rule:evenodd;stroke:none"
             id="path206" /><path
             d="m 1487.2,2225.6 -19.8,-71.4 51,54 -31.2,17.4 z"
             style="fill:none;stroke:#000000;stroke-width:4.5;stroke-linecap:butt;stroke-linejoin:miter;stroke-miterlimit:10;stroke-opacity:1;stroke-dasharray:none"
             id="path208" /></g></g><g
         id="g210"><g
           id="g212"
           clip-path="url(#clipPath214)"><path
             d="M 2573.2,18.1992 2406.4,306.199"
             style="fill:#000000;fill-opacity:1;fill-rule:evenodd;stroke:none"
             id="path218" /><path
             d="M 2573.2,18.1992 2406.4,306.199"
             style="fill:none;stroke:#000000;stroke-width:9;stroke-linecap:butt;stroke-linejoin:miter;stroke-miterlimit:10;stroke-opacity:1;stroke-dasharray:none"
             id="path220" /></g></g><g
         id="g222"><g
           id="g224"
           clip-path="url(#clipPath226)"><path
             d="m 2462.8,245 -51.6,52.801 20.4,-70.801 31.2,18"
             style="fill:#000000;fill-opacity:1;fill-rule:evenodd;stroke:none"
             id="path230" /><path
             d="m 2462.8,245 -51.6,52.801 20.4,-70.801 31.2,18 z"
             style="fill:none;stroke:#000000;stroke-width:4.5;stroke-linecap:butt;stroke-linejoin:miter;stroke-miterlimit:10;stroke-opacity:1;stroke-dasharray:none"
             id="path232" /></g></g><g
         id="g234"><g
           id="g236"
           clip-path="url(#clipPath238)"><path
             d="m 2491,347 333,0.602"
             style="fill:#000000;fill-opacity:1;fill-rule:evenodd;stroke:none"
             id="path242" /><path
             d="m 2491,347 333,0.602"
             style="fill:none;stroke:#000000;stroke-width:9;stroke-linecap:butt;stroke-linejoin:miter;stroke-miterlimit:10;stroke-opacity:1;stroke-dasharray:none"
             id="path244" /></g></g><g
         id="g246"><g
           id="g248"
           clip-path="url(#clipPath250)"><path
             d="m 2742.4,329.602 72,18 -72.6,18 0.6,-36"
             style="fill:#000000;fill-opacity:1;fill-rule:evenodd;stroke:none"
             id="path254" /><path
             d="m 2742.4,329.602 72,18 -72.6,18 0.6,-36 z"
             style="fill:none;stroke:#000000;stroke-width:4.5;stroke-linecap:butt;stroke-linejoin:miter;stroke-miterlimit:10;stroke-opacity:1;stroke-dasharray:none"
             id="path256" /></g></g></g></g></svg>