<?xml version="1.0" encoding="UTF-8" standalone="no"?>
<!-- Created with Inkscape (http://www.inkscape.org/) -->

<svg
   xmlns:dc="http://purl.org/dc/elements/1.1/"
   xmlns:cc="http://creativecommons.org/ns#"
   xmlns:rdf="http://www.w3.org/1999/02/22-rdf-syntax-ns#"
   xmlns:svg="http://www.w3.org/2000/svg"
   xmlns="http://www.w3.org/2000/svg"
   xmlns:sodipodi="http://sodipodi.sourceforge.net/DTD/sodipodi-0.dtd"
   xmlns:inkscape="http://www.inkscape.org/namespaces/inkscape"
   id="svg2"
   version="1.1"
   inkscape:version="0.47 r22583"
   width="560"
   height="420.10376"
   xml:space="preserve"
   sodipodi:docname="ref_cube_edge_tangent.eps"><metadata
     id="metadata8"><rdf:RDF><cc:Work
         rdf:about=""><dc:format>image/svg+xml</dc:format><dc:type
           rdf:resource="http://purl.org/dc/dcmitype/StillImage" /><dc:title></dc:title></cc:Work></rdf:RDF></metadata><defs
     id="defs6"><inkscape:perspective
       sodipodi:type="inkscape:persp3d"
       inkscape:vp_x="0 : 0.5 : 1"
       inkscape:vp_y="0 : 1000 : 0"
       inkscape:vp_z="1 : 0.5 : 1"
       inkscape:persp3d-origin="0.5 : 0.33333333 : 1"
       id="perspective10" /><clipPath
       clipPathUnits="userSpaceOnUse"
       id="clipPath20"><path
         d="m 810,5640 4480,0 0,-3360.83 -4480,0 0,3360.83 z"
         id="path22" /></clipPath><clipPath
       clipPathUnits="userSpaceOnUse"
       id="clipPath38"><path
         d="m 1391.67,5388.34 3472.5,0 0,-2740.01 -3472.5,0 0,2740.01 z"
         id="path40" /></clipPath><clipPath
       clipPathUnits="userSpaceOnUse"
       id="clipPath48"><path
         d="m 810,5640 4480,0 0,-3360.83 -4480,0 0,3360.83 z"
         id="path50" /></clipPath><clipPath
       clipPathUnits="userSpaceOnUse"
       id="clipPath60"><path
         d="m 1391.67,5388.34 3472.5,0 0,-2740.01 -3472.5,0 0,2740.01 z"
         id="path62" /></clipPath><clipPath
       clipPathUnits="userSpaceOnUse"
       id="clipPath72"><path
         d="m 810,5640 4480,0 0,-3360.83 -4480,0 0,3360.83 z"
         id="path74" /></clipPath><clipPath
       clipPathUnits="userSpaceOnUse"
       id="clipPath88"><path
         d="m 1391.67,5388.34 3472.5,0 0,-2740.01 -3472.5,0 0,2740.01 z"
         id="path90" /></clipPath><clipPath
       clipPathUnits="userSpaceOnUse"
       id="clipPath98"><path
         d="m 810,5640 4480,0 0,-3360.83 -4480,0 0,3360.83 z"
         id="path100" /></clipPath><clipPath
       clipPathUnits="userSpaceOnUse"
       id="clipPath114"><path
         d="m 1391.67,5388.34 3472.5,0 0,-2740.01 -3472.5,0 0,2740.01 z"
         id="path116" /></clipPath><clipPath
       clipPathUnits="userSpaceOnUse"
       id="clipPath128"><path
         d="m 810,5640 4480,0 0,-3360.83 -4480,0 0,3360.83 z"
         id="path130" /></clipPath><clipPath
       clipPathUnits="userSpaceOnUse"
       id="clipPath140"><path
         d="m 1391.67,5388.34 3472.5,0 0,-2740.01 -3472.5,0 0,2740.01 z"
         id="path142" /></clipPath><clipPath
       clipPathUnits="userSpaceOnUse"
       id="clipPath152"><path
         d="m 810,5640 4480,0 0,-3360.83 -4480,0 0,3360.83 z"
         id="path154" /></clipPath><clipPath
       clipPathUnits="userSpaceOnUse"
       id="clipPath172"><path
         d="m 1391.67,5388.34 3472.5,0 0,-2740.01 -3472.5,0 0,2740.01 z"
         id="path174" /></clipPath><clipPath
       clipPathUnits="userSpaceOnUse"
       id="clipPath182"><path
         d="m 810,5640 4480,0 0,-3360.83 -4480,0 0,3360.83 z"
         id="path184" /></clipPath><clipPath
       clipPathUnits="userSpaceOnUse"
       id="clipPath194"><path
         d="m 1391.67,5388.34 3472.5,0 0,-2740.01 -3472.5,0 0,2740.01 z"
         id="path196" /></clipPath></defs><sodipodi:namedview
     pagecolor="#ffffff"
     bordercolor="#666666"
     borderopacity="1"
     objecttolerance="10"
     gridtolerance="10"
     guidetolerance="10"
     inkscape:pageopacity="0"
     inkscape:pageshadow="2"
     inkscape:window-width="640"
     inkscape:window-height="498"
     id="namedview4"
     showgrid="false"
     inkscape:zoom="0.33712566"
     inkscape:cx="281.25"
     inkscape:cy="201.71392"
     inkscape:window-x="0"
     inkscape:window-y="25"
     inkscape:window-maximized="0"
     inkscape:current-layer="g12" /><g
     id="g12"
     inkscape:groupmode="layer"
     inkscape:label="ink_ext_XXXXXX"
     transform="matrix(1.25,0,0,-1.25,-101.25,705)"><g
       id="g3071"><g
         transform="scale(0.1,0.1)"
         id="g16"><g
           id="g18"
           clip-path="url(#clipPath20)"><path
             d="m 810,2279.17 4480,0 0,3360.83 -4480,0 0,-3360.83 z"
             style="fill:#ffffff;fill-opacity:1;fill-rule:nonzero;stroke:none"
             id="path24" /><path
             d="m 4574.17,4078.33 61.66,-150 -61.66,0 0,-102.5 0,102.5 -60.84,0 60.84,150"
             style="fill:#0000ff;fill-opacity:1;fill-rule:evenodd;stroke:none"
             id="path26" /><path
             d="m 4574.17,4078.33 61.66,-150 -61.66,0 0,-102.5 0,102.5 -60.84,0 60.84,150 0,0"
             style="fill:none;stroke:#0000ff;stroke-width:5;stroke-linecap:butt;stroke-linejoin:round;stroke-miterlimit:10;stroke-opacity:1;stroke-dasharray:none"
             id="path28" /><path
             d="m 4071.67,3552.5 -125.84,106.67 -19.16,-40 -105.84,48.33 0,0 105.84,-48.33 -19.17,-39.17 164.17,-27.5"
             style="fill:#0000ff;fill-opacity:1;fill-rule:evenodd;stroke:none"
             id="path30" /><path
             d="m 4071.67,3552.5 -125.84,106.67 -19.16,-40 -105.84,48.33 0,0 105.84,-48.33 -19.17,-39.17 164.17,-27.5 0,0"
             style="fill:none;stroke:#0000ff;stroke-width:5;stroke-linecap:butt;stroke-linejoin:round;stroke-miterlimit:10;stroke-opacity:1;stroke-dasharray:none"
             id="path32" /></g></g><g
         transform="scale(0.1,0.1)"
         id="g34"><g
           id="g36"
           clip-path="url(#clipPath38)"><path
             d="M 4574.17,3320.83 3318.33,3899.17"
             style="fill:none;stroke:#000000;stroke-width:5;stroke-linecap:butt;stroke-linejoin:round;stroke-miterlimit:10;stroke-opacity:1;stroke-dasharray:60;stroke-dashoffset:0"
             id="path42" /></g></g><g
         transform="scale(0.1,0.1)"
         id="g44"><g
           id="g46"
           clip-path="url(#clipPath48)"><path
             d="m 4071.67,4814.17 -167.5,131.66 -25.84,-42.5 -57.5,25.84 0,0 57.5,-25.84 -25.83,-43.33 219.17,-45.83"
             style="fill:#0000ff;fill-opacity:1;fill-rule:evenodd;stroke:none"
             id="path52" /><path
             d="m 4071.67,4814.17 -167.5,131.66 -25.84,-42.5 -57.5,25.84 0,0 57.5,-25.84 -25.83,-43.33 219.17,-45.83 0,0"
             style="fill:none;stroke:#0000ff;stroke-width:5;stroke-linecap:butt;stroke-linejoin:round;stroke-miterlimit:10;stroke-opacity:1;stroke-dasharray:none"
             id="path54" /></g></g><g
         transform="scale(0.1,0.1)"
         id="g56"><g
           id="g58"
           clip-path="url(#clipPath60)"><path
             d="M 4574.17,4582.5 3318.33,5160.84"
             style="fill:none;stroke:#000000;stroke-width:5;stroke-linecap:butt;stroke-linejoin:round;stroke-miterlimit:10;stroke-opacity:1;stroke-dasharray:none"
             id="path64" /><path
             d="m 4574.17,3320.83 0,1261.67"
             style="fill:none;stroke:#000000;stroke-width:5;stroke-linecap:butt;stroke-linejoin:round;stroke-miterlimit:10;stroke-opacity:1;stroke-dasharray:none"
             id="path66" /></g></g><g
         transform="scale(0.1,0.1)"
         id="g68"><g
           id="g70"
           clip-path="url(#clipPath72)"><path
             d="m 3920,4405 -222.5,-10 16.67,-45.83 -121.67,-32.5 0,0 121.67,32.5 15.83,-45 190,100.83"
             style="fill:#0000ff;fill-opacity:1;fill-rule:evenodd;stroke:none"
             id="path76" /><path
             d="m 3920,4405 -222.5,-10 16.67,-45.83 -121.67,-32.5 0,0 121.67,32.5 15.83,-45 190,100.83 0,0"
             style="fill:none;stroke:#0000ff;stroke-width:5;stroke-linecap:butt;stroke-linejoin:round;stroke-miterlimit:10;stroke-opacity:1;stroke-dasharray:none"
             id="path78" /><path
             d="m 3920,3144.17 -215.83,-13.34 10,-42.5 -121.67,-33.33 0,0 121.67,33.33 9.16,-43.33 196.67,99.17"
             style="fill:#0000ff;fill-opacity:1;fill-rule:evenodd;stroke:none"
             id="path80" /><path
             d="m 3920,3144.17 -215.83,-13.34 10,-42.5 -121.67,-33.33 0,0 121.67,33.33 9.16,-43.33 196.67,99.17 0,0"
             style="fill:none;stroke:#0000ff;stroke-width:5;stroke-linecap:butt;stroke-linejoin:round;stroke-miterlimit:10;stroke-opacity:1;stroke-dasharray:none"
             id="path82" /></g></g><g
         transform="scale(0.1,0.1)"
         id="g84"><g
           id="g86"
           clip-path="url(#clipPath88)"><path
             d="m 3318.33,3899.17 0,1261.67"
             style="fill:none;stroke:#000000;stroke-width:5;stroke-linecap:butt;stroke-linejoin:round;stroke-miterlimit:10;stroke-opacity:1;stroke-dasharray:60;stroke-dashoffset:0"
             id="path92" /></g></g><g
         transform="scale(0.1,0.1)"
         id="g94"><g
           id="g96"
           clip-path="url(#clipPath98)"><path
             d="m 3318.33,4655.84 60.84,-149.17 -60.84,0 0,-103.34 0,103.34 -60.83,0 60.83,149.17"
             style="fill:#0000ff;fill-opacity:1;fill-rule:evenodd;stroke:none"
             id="path102" /><path
             d="m 3318.33,4655.84 60.84,-149.17 -60.84,0 0,-103.34 0,103.34 -60.83,0 60.83,149.17 0,0"
             style="fill:none;stroke:#0000ff;stroke-width:5;stroke-linecap:butt;stroke-linejoin:round;stroke-miterlimit:10;stroke-opacity:1;stroke-dasharray:none"
             id="path104" /><path
             d="m 2663.33,3721.67 -160,-2.5 5.84,-39.17 -173.34,-46.67 0,0 173.34,46.67 5.83,-39.17 148.33,80.84"
             style="fill:#0000ff;fill-opacity:1;fill-rule:evenodd;stroke:none"
             id="path106" /><path
             d="m 2663.33,3721.67 -160,-2.5 5.84,-39.17 -173.34,-46.67 0,0 173.34,46.67 5.83,-39.17 148.33,80.84 0,0"
             style="fill:none;stroke:#0000ff;stroke-width:5;stroke-linecap:butt;stroke-linejoin:round;stroke-miterlimit:10;stroke-opacity:1;stroke-dasharray:none"
             id="path108" /></g></g><g
         transform="scale(0.1,0.1)"
         id="g110"><g
           id="g112"
           clip-path="url(#clipPath114)"><path
             d="M 3318.33,3899.17 1681.67,3455.83"
             style="fill:none;stroke:#000000;stroke-width:5;stroke-linecap:butt;stroke-linejoin:round;stroke-miterlimit:10;stroke-opacity:1;stroke-dasharray:60;stroke-dashoffset:0"
             id="path118" /><path
             d="M 3318.33,5160.84 1681.67,4717.5"
             style="fill:none;stroke:#000000;stroke-width:5;stroke-linecap:butt;stroke-linejoin:round;stroke-miterlimit:10;stroke-opacity:1;stroke-dasharray:none"
             id="path120" /><path
             d="m 2937.5,2877.5 0,1261.67"
             style="fill:none;stroke:#000000;stroke-width:5;stroke-linecap:butt;stroke-linejoin:round;stroke-miterlimit:10;stroke-opacity:1;stroke-dasharray:none"
             id="path122" /></g></g><g
         transform="scale(0.1,0.1)"
         id="g124"><g
           id="g126"
           clip-path="url(#clipPath128)"><path
             d="m 2937.5,3635 60.83,-150 -60.83,0 0,-102.5 0,102.5 -60.83,0 60.83,150"
             style="fill:#0000ff;fill-opacity:1;fill-rule:evenodd;stroke:none"
             id="path132" /><path
             d="m 2937.5,3635 60.83,-150 -60.83,0 0,-102.5 0,102.5 -60.83,0 60.83,150 0,0"
             style="fill:none;stroke:#0000ff;stroke-width:5;stroke-linecap:butt;stroke-linejoin:round;stroke-miterlimit:10;stroke-opacity:1;stroke-dasharray:none"
             id="path134" /></g></g><g
         transform="scale(0.1,0.1)"
         id="g136"><g
           id="g138"
           clip-path="url(#clipPath140)"><path
             d="m 2937.5,2877.5 1636.67,443.33"
             style="fill:none;stroke:#000000;stroke-width:5;stroke-linecap:butt;stroke-linejoin:round;stroke-miterlimit:10;stroke-opacity:1;stroke-dasharray:none"
             id="path144" /><path
             d="M 2937.5,4139.17 4574.17,4582.5"
             style="fill:none;stroke:#000000;stroke-width:5;stroke-linecap:butt;stroke-linejoin:round;stroke-miterlimit:10;stroke-opacity:1;stroke-dasharray:none"
             id="path146" /></g></g><g
         transform="scale(0.1,0.1)"
         id="g148"><g
           id="g150"
           clip-path="url(#clipPath152)"><path
             d="m 2663.33,4983.34 -221.66,-10.01 15.83,-45.83 -121.67,-33.33 0,0 121.67,33.33 15.83,-45.83 190,101.67"
             style="fill:#0000ff;fill-opacity:1;fill-rule:evenodd;stroke:none"
             id="path156" /><path
             d="m 2663.33,4983.34 -221.66,-10.01 15.83,-45.83 -121.67,-33.33 0,0 121.67,33.33 15.83,-45.83 190,101.67 0,0"
             style="fill:none;stroke:#0000ff;stroke-width:5;stroke-linecap:butt;stroke-linejoin:round;stroke-miterlimit:10;stroke-opacity:1;stroke-dasharray:none"
             id="path158" /><path
             d="m 2435,3109.17 -84.17,72.5 -12.5,-28.34 -154.16,70.84 0,0 154.16,-70.84 -13.33,-27.5 110,-16.66"
             style="fill:#0000ff;fill-opacity:1;fill-rule:evenodd;stroke:none"
             id="path160" /><path
             d="m 2435,3109.17 -84.17,72.5 -12.5,-28.34 -154.16,70.84 0,0 154.16,-70.84 -13.33,-27.5 110,-16.66 0,0"
             style="fill:none;stroke:#0000ff;stroke-width:5;stroke-linecap:butt;stroke-linejoin:round;stroke-miterlimit:10;stroke-opacity:1;stroke-dasharray:none"
             id="path162" /><path
             d="m 2435,4370.84 -168.33,131.66 -25.84,-42.5 -56.66,25.84 0,0 56.66,-25.84 -25,-43.33 219.17,-45.83"
             style="fill:#0000ff;fill-opacity:1;fill-rule:evenodd;stroke:none"
             id="path164" /><path
             d="m 2435,4370.84 -168.33,131.66 -25.84,-42.5 -56.66,25.84 0,0 56.66,-25.84 -25,-43.33 219.17,-45.83 0,0"
             style="fill:none;stroke:#0000ff;stroke-width:5;stroke-linecap:butt;stroke-linejoin:round;stroke-miterlimit:10;stroke-opacity:1;stroke-dasharray:none"
             id="path166" /></g></g><g
         transform="scale(0.1,0.1)"
         id="g168"><g
           id="g170"
           clip-path="url(#clipPath172)"><path
             d="m 1681.67,3455.83 0,1261.67"
             style="fill:none;stroke:#000000;stroke-width:5;stroke-linecap:butt;stroke-linejoin:round;stroke-miterlimit:10;stroke-opacity:1;stroke-dasharray:none"
             id="path176" /></g></g><g
         transform="scale(0.1,0.1)"
         id="g178"><g
           id="g180"
           clip-path="url(#clipPath182)"><path
             d="m 1681.67,4212.5 45.83,-149.17 -45.83,0 0,-103.33 0,103.33 -45.84,0 45.84,149.17"
             style="fill:#0000ff;fill-opacity:1;fill-rule:evenodd;stroke:none"
             id="path186" /><path
             d="m 1681.67,4212.5 45.83,-149.17 -45.83,0 0,-103.33 0,103.33 -45.84,0 45.84,149.17 0,0"
             style="fill:none;stroke:#0000ff;stroke-width:5;stroke-linecap:butt;stroke-linejoin:round;stroke-miterlimit:10;stroke-opacity:1;stroke-dasharray:none"
             id="path188" /></g></g><g
         transform="scale(0.1,0.1)"
         id="g190"><g
           id="g192"
           clip-path="url(#clipPath194)"><path
             d="M 1681.67,3455.83 2937.5,2877.5"
             style="fill:none;stroke:#000000;stroke-width:5;stroke-linecap:butt;stroke-linejoin:round;stroke-miterlimit:10;stroke-opacity:1;stroke-dasharray:none"
             id="path198" /><path
             d="M 1681.67,4717.5 2937.5,4139.17"
             style="fill:none;stroke:#000000;stroke-width:5;stroke-linecap:butt;stroke-linejoin:round;stroke-miterlimit:10;stroke-opacity:1;stroke-dasharray:none"
             id="path200" /></g></g></g></g></svg>