<?xml version="1.0" encoding="UTF-8" standalone="no"?>
<!-- Created with Inkscape (http://www.inkscape.org/) -->

<svg
   xmlns:dc="http://purl.org/dc/elements/1.1/"
   xmlns:cc="http://creativecommons.org/ns#"
   xmlns:rdf="http://www.w3.org/1999/02/22-rdf-syntax-ns#"
   xmlns:svg="http://www.w3.org/2000/svg"
   xmlns="http://www.w3.org/2000/svg"
   xmlns:sodipodi="http://sodipodi.sourceforge.net/DTD/sodipodi-0.dtd"
   xmlns:inkscape="http://www.inkscape.org/namespaces/inkscape"
   id="svg2"
   version="1.1"
   inkscape:version="0.47 r22583"
   width="560"
   height="420.10376"
   xml:space="preserve"
   sodipodi:docname="ref_cube_vertices.eps"><metadata
     id="metadata8"><rdf:RDF><cc:Work
         rdf:about=""><dc:format>image/svg+xml</dc:format><dc:type
           rdf:resource="http://purl.org/dc/dcmitype/StillImage" /><dc:title></dc:title></cc:Work></rdf:RDF></metadata><defs
     id="defs6"><inkscape:perspective
       sodipodi:type="inkscape:persp3d"
       inkscape:vp_x="0 : 0.5 : 1"
       inkscape:vp_y="0 : 1000 : 0"
       inkscape:vp_z="1 : 0.5 : 1"
       inkscape:persp3d-origin="0.5 : 0.33333333 : 1"
       id="perspective10" /><clipPath
       clipPathUnits="userSpaceOnUse"
       id="clipPath20"><path
         d="m 810,5640 4480,0 0,-3360.83 -4480,0 0,3360.83 z"
         id="path22" /></clipPath><clipPath
       clipPathUnits="userSpaceOnUse"
       id="clipPath126"><path
         d="m 1391.67,5389.17 3472.5,0 0,-2740 -3472.5,0 0,2740 z"
         id="path128" /></clipPath><clipPath
       clipPathUnits="userSpaceOnUse"
       id="clipPath142"><path
         d="m 810,5640 4480,0 0,-3360.83 -4480,0 0,3360.83 z"
         id="path144" /></clipPath><clipPath
       clipPathUnits="userSpaceOnUse"
       id="clipPath170"><path
         d="m 1391.67,5389.17 3472.5,0 0,-2740 -3472.5,0 0,2740 z"
         id="path172" /></clipPath><clipPath
       clipPathUnits="userSpaceOnUse"
       id="clipPath182"><path
         d="m 810,5640 4480,0 0,-3360.83 -4480,0 0,3360.83 z"
         id="path184" /></clipPath><clipPath
       clipPathUnits="userSpaceOnUse"
       id="clipPath194"><path
         d="m 1391.67,5389.17 3472.5,0 0,-2740 -3472.5,0 0,2740 z"
         id="path196" /></clipPath><clipPath
       clipPathUnits="userSpaceOnUse"
       id="clipPath208"><path
         d="m 810,5640 4480,0 0,-3360.83 -4480,0 0,3360.83 z"
         id="path210" /></clipPath><clipPath
       clipPathUnits="userSpaceOnUse"
       id="clipPath236"><path
         d="m 1391.67,5389.17 3472.5,0 0,-2740 -3472.5,0 0,2740 z"
         id="path238" /></clipPath><clipPath
       clipPathUnits="userSpaceOnUse"
       id="clipPath250"><path
         d="m 810,5640 4480,0 0,-3360.83 -4480,0 0,3360.83 z"
         id="path252" /></clipPath></defs><sodipodi:namedview
     pagecolor="#ffffff"
     bordercolor="#666666"
     borderopacity="1"
     objecttolerance="10"
     gridtolerance="10"
     guidetolerance="10"
     inkscape:pageopacity="0"
     inkscape:pageshadow="2"
     inkscape:window-width="1920"
     inkscape:window-height="1003"
     id="namedview4"
     showgrid="false"
     inkscape:zoom="0.23838384"
     inkscape:cx="281.25"
     inkscape:cy="201.71392"
     inkscape:window-x="0"
     inkscape:window-y="25"
     inkscape:window-maximized="1"
     inkscape:current-layer="g12" /><g
     id="g12"
     inkscape:groupmode="layer"
     inkscape:label="ink_ext_XXXXXX"
     transform="matrix(1.25,0,0,-1.25,-101.25,705)"><g
       id="g3189"><g
         transform="scale(0.1,0.1)"
         id="g16"><g
           id="g18"
           clip-path="url(#clipPath20)"><path
             d="m 810,2279.17 4480,0 0,3360.83 -4480,0 0,-3360.83 z"
             style="fill:#ffffff;fill-opacity:1;fill-rule:nonzero;stroke:none"
             id="path24" /><path
             d="M 1391.67,3343.33 3356.67,3875 4863.33,3181.67 2899.17,2650"
             style="fill:#ffffff;fill-opacity:1;fill-rule:evenodd;stroke:none"
             id="path26" /><path
             d="M 1391.67,3343.33 3356.67,3875 4863.33,3181.67 2899.17,2650 1391.67,3343.33"
             style="fill:none;stroke:#ffffff;stroke-width:5;stroke-linecap:butt;stroke-linejoin:round;stroke-miterlimit:10;stroke-opacity:1;stroke-dasharray:none"
             id="path28" /><path
             d="m 1391.67,3343.33 0,1513.34 1965,532.5 0,-1514.17"
             style="fill:#ffffff;fill-opacity:1;fill-rule:evenodd;stroke:none"
             id="path30" /><path
             d="m 1391.67,3343.33 0,1513.34 1965,532.5 0,-1514.17 -1965,-531.67"
             style="fill:none;stroke:#ffffff;stroke-width:5;stroke-linecap:butt;stroke-linejoin:round;stroke-miterlimit:10;stroke-opacity:1;stroke-dasharray:none"
             id="path32" /><path
             d="m 3356.67,3875 0,1514.17 1506.66,-694.17 0,-1513.33"
             style="fill:#ffffff;fill-opacity:1;fill-rule:evenodd;stroke:none"
             id="path34" /><path
             d="m 3356.67,3875 0,1514.17 1506.66,-694.17 0,-1513.33 L 3356.67,3875"
             style="fill:none;stroke:#ffffff;stroke-width:5;stroke-linecap:butt;stroke-linejoin:round;stroke-miterlimit:10;stroke-opacity:1;stroke-dasharray:none"
             id="path36" /><path
             d="M 1391.67,3343.33 2899.17,2650"
             style="fill:none;stroke:#000000;stroke-width:5;stroke-linecap:butt;stroke-linejoin:round;stroke-miterlimit:10;stroke-opacity:1;stroke-dasharray:none"
             id="path38" /><path
             d="m 2899.17,2650 1964.16,531.67"
             style="fill:none;stroke:#000000;stroke-width:5;stroke-linecap:butt;stroke-linejoin:round;stroke-miterlimit:10;stroke-opacity:1;stroke-dasharray:none"
             id="path40" /><path
             d="m 1391.67,3343.33 0,1513.34"
             style="fill:none;stroke:#000000;stroke-width:5;stroke-linecap:butt;stroke-linejoin:round;stroke-miterlimit:10;stroke-opacity:1;stroke-dasharray:none"
             id="path42" /><path
             d="m 1643.33,3227.5 -49.16,-13.33"
             style="fill:none;stroke:#000000;stroke-width:5;stroke-linecap:butt;stroke-linejoin:round;stroke-miterlimit:10;stroke-opacity:1;stroke-dasharray:none"
             id="path44" /><g
             id="g46"
             transform="scale(10,10)"><text
               transform="matrix(1,0,0,-1,150,309.5)"
               id="text48"><tspan
                 style="font-size:12px;font-variant:normal;font-weight:normal;writing-mode:lr-tb;fill:#000000;fill-opacity:1;fill-rule:nonzero;stroke:none;font-family:Helvetica;-inkscape-font-specification:Helvetica"
                 x="0"
                 y="0"
                 id="tspan50">0</tspan></text>
</g><path
             d="m 2145.83,2996.67 -49.16,-13.34"
             style="fill:none;stroke:#000000;stroke-width:5;stroke-linecap:butt;stroke-linejoin:round;stroke-miterlimit:10;stroke-opacity:1;stroke-dasharray:none"
             id="path52" /><g
             id="g54"
             transform="scale(10,10)"><text
               transform="matrix(1,0,0,-1,190.25,286.417)"
               id="text56"><tspan
                 style="font-size:12px;font-variant:normal;font-weight:normal;writing-mode:lr-tb;fill:#000000;fill-opacity:1;fill-rule:nonzero;stroke:none;font-family:Helvetica;-inkscape-font-specification:Helvetica"
                 x="0 6.6719999 10.008"
                 y="0"
                 sodipodi:role="line"
                 id="tspan58">0.5</tspan></text>
</g><path
             d="m 2648.33,2765 -49.16,-13.33"
             style="fill:none;stroke:#000000;stroke-width:5;stroke-linecap:butt;stroke-linejoin:round;stroke-miterlimit:10;stroke-opacity:1;stroke-dasharray:none"
             id="path60" /><g
             id="g62"
             transform="scale(10,10)"><text
               transform="matrix(1,0,0,-1,250.5,263.25)"
               id="text64"><tspan
                 style="font-size:12px;font-variant:normal;font-weight:normal;writing-mode:lr-tb;fill:#000000;fill-opacity:1;fill-rule:nonzero;stroke:none;font-family:Helvetica;-inkscape-font-specification:Helvetica"
                 x="0"
                 y="0"
                 id="tspan66">1</tspan></text>
</g><path
             d="m 3226.67,2738.33 46.66,-21.66"
             style="fill:none;stroke:#000000;stroke-width:5;stroke-linecap:butt;stroke-linejoin:round;stroke-miterlimit:10;stroke-opacity:1;stroke-dasharray:none"
             id="path68" /><g
             id="g70"
             transform="scale(10,10)"><text
               transform="matrix(1,0,0,-1,329.917,259.333)"
               id="text72"><tspan
                 style="font-size:12px;font-variant:normal;font-weight:normal;writing-mode:lr-tb;fill:#000000;fill-opacity:1;fill-rule:nonzero;stroke:none;font-family:Helvetica;-inkscape-font-specification:Helvetica"
                 x="0"
                 y="0"
                 id="tspan74">0</tspan></text>
</g><path
             d="m 3881.67,2915.83 45.83,-21.66"
             style="fill:none;stroke:#000000;stroke-width:5;stroke-linecap:butt;stroke-linejoin:round;stroke-miterlimit:10;stroke-opacity:1;stroke-dasharray:none"
             id="path76" /><g
             id="g78"
             transform="scale(10,10)"><text
               transform="matrix(1,0,0,-1,395.417,277.083)"
               id="text80"><tspan
                 style="font-size:12px;font-variant:normal;font-weight:normal;writing-mode:lr-tb;fill:#000000;fill-opacity:1;fill-rule:nonzero;stroke:none;font-family:Helvetica;-inkscape-font-specification:Helvetica"
                 x="0 6.6719999 10.008"
                 y="0"
                 sodipodi:role="line"
                 id="tspan82">0.5</tspan></text>
</g><path
             d="m 4536.67,3093.33 45.83,-21.66"
             style="fill:none;stroke:#000000;stroke-width:5;stroke-linecap:butt;stroke-linejoin:round;stroke-miterlimit:10;stroke-opacity:1;stroke-dasharray:none"
             id="path84" /><g
             id="g86"
             transform="scale(10,10)"><text
               transform="matrix(1,0,0,-1,460.833,294.833)"
               id="text88"><tspan
                 style="font-size:12px;font-variant:normal;font-weight:normal;writing-mode:lr-tb;fill:#000000;fill-opacity:1;fill-rule:nonzero;stroke:none;font-family:Helvetica;-inkscape-font-specification:Helvetica"
                 x="0"
                 y="0"
                 id="tspan90">1</tspan></text>
</g><path
             d="m 1391.67,3595 -45.84,21.67"
             style="fill:none;stroke:#000000;stroke-width:5;stroke-linecap:butt;stroke-linejoin:round;stroke-miterlimit:10;stroke-opacity:1;stroke-dasharray:none"
             id="path92" /><g
             id="g94"
             transform="scale(10,10)"><text
               transform="matrix(1,0,0,-1,125.333,358.417)"
               id="text96"><tspan
                 style="font-size:12px;font-variant:normal;font-weight:normal;writing-mode:lr-tb;fill:#000000;fill-opacity:1;fill-rule:nonzero;stroke:none;font-family:Helvetica;-inkscape-font-specification:Helvetica"
                 x="0"
                 y="0"
                 id="tspan98">0</tspan></text>
</g><path
             d="m 1391.67,4100 -45.84,20.84"
             style="fill:none;stroke:#000000;stroke-width:5;stroke-linecap:butt;stroke-linejoin:round;stroke-miterlimit:10;stroke-opacity:1;stroke-dasharray:none"
             id="path100" /><g
             id="g102"
             transform="scale(10,10)"><text
               transform="matrix(1,0,0,-1,115.333,408.917)"
               id="text104"><tspan
                 style="font-size:12px;font-variant:normal;font-weight:normal;writing-mode:lr-tb;fill:#000000;fill-opacity:1;fill-rule:nonzero;stroke:none;font-family:Helvetica;-inkscape-font-specification:Helvetica"
                 x="0 6.6719999 10.008"
                 y="0"
                 sodipodi:role="line"
                 id="tspan106">0.5</tspan></text>
</g><path
             d="m 1391.67,4604.17 -45.84,21.67"
             style="fill:none;stroke:#000000;stroke-width:5;stroke-linecap:butt;stroke-linejoin:round;stroke-miterlimit:10;stroke-opacity:1;stroke-dasharray:none"
             id="path108" /><g
             id="g110"
             transform="scale(10,10)"><text
               transform="matrix(1,0,0,-1,125.333,459.334)"
               id="text112"><tspan
                 style="font-size:12px;font-variant:normal;font-weight:normal;writing-mode:lr-tb;fill:#000000;fill-opacity:1;fill-rule:nonzero;stroke:none;font-family:Helvetica;-inkscape-font-specification:Helvetica"
                 x="0"
                 y="0"
                 id="tspan114">1</tspan></text>
<text
               transform="matrix(1,0,0,-1,451.667,328.5)"
               id="text116"><tspan
                 style="font-size:18px;font-variant:normal;font-weight:normal;writing-mode:lr-tb;fill:#000000;fill-opacity:1;fill-rule:nonzero;stroke:none;font-family:Helvetica;-inkscape-font-specification:Helvetica"
                 x="0 9"
                 y="0"
                 sodipodi:role="line"
                 id="tspan118">v3</tspan><tspan
                 style="font-size:18px;font-variant:normal;font-weight:normal;writing-mode:lr-tb;fill:#000000;fill-opacity:1;fill-rule:nonzero;stroke:none;font-family:Helvetica;-inkscape-font-specification:Helvetica"
                 x="0 9"
                 y="-121.084"
                 sodipodi:role="line"
                 id="tspan120">v7</tspan></text>
</g></g></g><g
         transform="scale(0.1,0.1)"
         id="g122"><g
           id="g124"
           clip-path="url(#clipPath126)"><path
             d="m 4285,3460.83 -1005,462.5"
             style="fill:none;stroke:#000000;stroke-width:5;stroke-linecap:butt;stroke-linejoin:round;stroke-miterlimit:10;stroke-opacity:1;stroke-dasharray:60;stroke-dashoffset:0"
             id="path130" /><path
             d="M 4285,4470 3280,4932.5"
             style="fill:none;stroke:#000000;stroke-width:5;stroke-linecap:butt;stroke-linejoin:round;stroke-miterlimit:10;stroke-opacity:1;stroke-dasharray:none"
             id="path132" /><path
             d="M 4285,3460.83 4285,4470"
             style="fill:none;stroke:#000000;stroke-width:5;stroke-linecap:butt;stroke-linejoin:round;stroke-miterlimit:10;stroke-opacity:1;stroke-dasharray:none"
             id="path134" /><path
             d="m 3280,3923.33 0,1009.17"
             style="fill:none;stroke:#000000;stroke-width:5;stroke-linecap:butt;stroke-linejoin:round;stroke-miterlimit:10;stroke-opacity:1;stroke-dasharray:60;stroke-dashoffset:0"
             id="path136" /></g></g><g
         transform="scale(0.1,0.1)"
         id="g138"><g
           id="g140"
           clip-path="url(#clipPath142)"><path
             d="m 4315,3460.83 c 0,-16.56 -13.43,-30 -30,-30 -16.57,0 -30,13.44 -30,30 0,16.57 13.43,30 30,30 16.57,0 30,-13.43 30,-30"
             style="fill:none;stroke:#0000ff;stroke-width:40;stroke-linecap:butt;stroke-linejoin:round;stroke-miterlimit:10;stroke-opacity:1;stroke-dasharray:none"
             id="path146" /><path
             d="m 4315,4470 c 0,-16.57 -13.43,-30 -30,-30 -16.57,0 -30,13.43 -30,30 0,16.57 13.43,30 30,30 16.57,0 30,-13.43 30,-30"
             style="fill:none;stroke:#0000ff;stroke-width:40;stroke-linecap:butt;stroke-linejoin:round;stroke-miterlimit:10;stroke-opacity:1;stroke-dasharray:none"
             id="path148" /><g
             id="g150"
             transform="scale(10,10)"><text
               transform="matrix(1,0,0,-1,379.083,246.667)"
               id="text152"><tspan
                 style="font-size:12px;font-variant:normal;font-weight:normal;writing-mode:lr-tb;fill:#000000;fill-opacity:1;fill-rule:nonzero;stroke:none;font-family:Symbol;-inkscape-font-specification:Symbol"
                 x="0"
                 y="0"
                 id="tspan154">χ</tspan></text>
<text
               transform="matrix(1,0,0,-1,385.66659,240.667)"
               id="text156"><tspan
                 style="font-size:9px;font-variant:normal;font-weight:normal;writing-mode:lr-tb;fill:#000000;fill-opacity:1;fill-rule:nonzero;stroke:none;font-family:Helvetica;-inkscape-font-specification:Helvetica"
                 x="0"
                 y="0"
                 id="tspan158">2</tspan></text>
<text
               transform="matrix(1,0,0,-1,331.08299,373.833)"
               id="text160"><tspan
                 style="font-size:18px;font-variant:normal;font-weight:normal;writing-mode:lr-tb;fill:#000000;fill-opacity:1;fill-rule:nonzero;stroke:none;font-family:Helvetica;-inkscape-font-specification:Helvetica"
                 x="0 9"
                 y="0"
                 sodipodi:role="line"
                 id="tspan162">v4</tspan><tspan
                 style="font-size:18px;font-variant:normal;font-weight:normal;writing-mode:lr-tb;fill:#000000;fill-opacity:1;fill-rule:nonzero;stroke:none;font-family:Helvetica;-inkscape-font-specification:Helvetica"
                 x="0 9"
                 y="-131.25"
                 sodipodi:role="line"
                 id="tspan164">v8</tspan></text>
</g></g></g><g
         transform="scale(0.1,0.1)"
         id="g166"><g
           id="g168"
           clip-path="url(#clipPath170)"><path
             d="m 3280,3923.33 -1309.17,-355"
             style="fill:none;stroke:#000000;stroke-width:5;stroke-linecap:butt;stroke-linejoin:round;stroke-miterlimit:10;stroke-opacity:1;stroke-dasharray:60;stroke-dashoffset:0"
             id="path174" /><path
             d="m 3280,4932.5 -1309.17,-355"
             style="fill:none;stroke:#000000;stroke-width:5;stroke-linecap:butt;stroke-linejoin:round;stroke-miterlimit:10;stroke-opacity:1;stroke-dasharray:none"
             id="path176" /></g></g><g
         transform="scale(0.1,0.1)"
         id="g178"><g
           id="g180"
           clip-path="url(#clipPath182)"><path
             d="m 3310,3923.33 c 0,-16.56 -13.43,-30 -30,-30 -16.57,0 -30,13.44 -30,30 0,16.57 13.43,30 30,30 16.57,0 30,-13.43 30,-30"
             style="fill:none;stroke:#0000ff;stroke-width:40;stroke-linecap:butt;stroke-linejoin:round;stroke-miterlimit:10;stroke-opacity:1;stroke-dasharray:none"
             id="path186" /><path
             d="m 3310,4932.5 c 0,-16.57 -13.43,-30 -30,-30 -16.57,0 -30,13.43 -30,30 0,16.57 13.43,30 30,30 16.57,0 30,-13.43 30,-30"
             style="fill:none;stroke:#0000ff;stroke-width:40;stroke-linecap:butt;stroke-linejoin:round;stroke-miterlimit:10;stroke-opacity:1;stroke-dasharray:none"
             id="path188" /></g></g><g
         transform="scale(0.1,0.1)"
         id="g190"><g
           id="g192"
           clip-path="url(#clipPath194)"><path
             d="m 2975.83,3105.83 1309.17,355"
             style="fill:none;stroke:#000000;stroke-width:5;stroke-linecap:butt;stroke-linejoin:round;stroke-miterlimit:10;stroke-opacity:1;stroke-dasharray:none"
             id="path198" /><path
             d="M 2975.83,4115 4285,4470"
             style="fill:none;stroke:#000000;stroke-width:5;stroke-linecap:butt;stroke-linejoin:round;stroke-miterlimit:10;stroke-opacity:1;stroke-dasharray:none"
             id="path200" /><path
             d="m 2975.83,3105.83 0,1009.17"
             style="fill:none;stroke:#000000;stroke-width:5;stroke-linecap:butt;stroke-linejoin:round;stroke-miterlimit:10;stroke-opacity:1;stroke-dasharray:none"
             id="path202" /></g></g><g
         transform="scale(0.1,0.1)"
         id="g204"><g
           id="g206"
           clip-path="url(#clipPath208)"><path
             d="m 3005.83,3105.83 c 0,-16.56 -13.43,-30 -30,-30 -16.56,0 -30,13.44 -30,30 0,16.57 13.44,30 30,30 16.57,0 30,-13.43 30,-30"
             style="fill:none;stroke:#0000ff;stroke-width:40;stroke-linecap:butt;stroke-linejoin:round;stroke-miterlimit:10;stroke-opacity:1;stroke-dasharray:none"
             id="path212" /><path
             d="m 3005.83,4115 c 0,-16.57 -13.43,-30 -30,-30 -16.56,0 -30,13.43 -30,30 0,16.57 13.44,30 30,30 16.57,0 30,-13.43 30,-30"
             style="fill:none;stroke:#0000ff;stroke-width:40;stroke-linecap:butt;stroke-linejoin:round;stroke-miterlimit:10;stroke-opacity:1;stroke-dasharray:none"
             id="path214" /><g
             id="g216"
             transform="scale(10,10)"><text
               transform="matrix(1,0,0,-1,294.5,285.917)"
               id="text218"><tspan
                 style="font-size:18px;font-variant:normal;font-weight:normal;writing-mode:lr-tb;fill:#000000;fill-opacity:1;fill-rule:nonzero;stroke:none;font-family:Helvetica;-inkscape-font-specification:Helvetica"
                 x="0 9"
                 y="0"
                 sodipodi:role="line"
                 id="tspan220">v2</tspan><tspan
                 style="font-size:18px;font-variant:normal;font-weight:normal;writing-mode:lr-tb;fill:#000000;fill-opacity:1;fill-rule:nonzero;stroke:none;font-family:Helvetica;-inkscape-font-specification:Helvetica"
                 x="0 9"
                 y="-131.25"
                 sodipodi:role="line"
                 id="tspan222">v6</tspan></text>
<text
               transform="matrix(1,0,0,-1,221.5,240.917)"
               id="text224"><tspan
                 style="font-size:12px;font-variant:normal;font-weight:normal;writing-mode:lr-tb;fill:#000000;fill-opacity:1;fill-rule:nonzero;stroke:none;font-family:Symbol;-inkscape-font-specification:Symbol"
                 x="0"
                 y="0"
                 id="tspan226">χ</tspan></text>
<text
               transform="matrix(1,0,0,-1,228.0832,234.917)"
               id="text228"><tspan
                 style="font-size:9px;font-variant:normal;font-weight:normal;writing-mode:lr-tb;fill:#000000;fill-opacity:1;fill-rule:nonzero;stroke:none;font-family:Helvetica;-inkscape-font-specification:Helvetica"
                 x="0"
                 y="0"
                 id="tspan230">1</tspan></text>
</g></g></g><g
         transform="scale(0.1,0.1)"
         id="g232"><g
           id="g234"
           clip-path="url(#clipPath236)"><path
             d="m 1970.83,3568.33 1005,-462.5"
             style="fill:none;stroke:#000000;stroke-width:5;stroke-linecap:butt;stroke-linejoin:round;stroke-miterlimit:10;stroke-opacity:1;stroke-dasharray:none"
             id="path240" /><path
             d="m 1970.83,4577.5 1005,-462.5"
             style="fill:none;stroke:#000000;stroke-width:5;stroke-linecap:butt;stroke-linejoin:round;stroke-miterlimit:10;stroke-opacity:1;stroke-dasharray:none"
             id="path242" /><path
             d="m 1970.83,3568.33 0,1009.17"
             style="fill:none;stroke:#000000;stroke-width:5;stroke-linecap:butt;stroke-linejoin:round;stroke-miterlimit:10;stroke-opacity:1;stroke-dasharray:none"
             id="path244" /></g></g><g
         transform="scale(0.1,0.1)"
         id="g246"><g
           id="g248"
           clip-path="url(#clipPath250)"><path
             d="m 2000.83,3568.33 c 0,-16.56 -13.43,-30 -30,-30 -16.56,0 -30,13.44 -30,30 0,16.57 13.44,30 30,30 16.57,0 30,-13.43 30,-30"
             style="fill:none;stroke:#0000ff;stroke-width:40;stroke-linecap:butt;stroke-linejoin:round;stroke-miterlimit:10;stroke-opacity:1;stroke-dasharray:none"
             id="path254" /><path
             d="m 2000.83,4577.5 c 0,-16.57 -13.43,-30 -30,-30 -16.56,0 -30,13.43 -30,30 0,16.57 13.44,30 30,30 16.57,0 30,-13.43 30,-30"
             style="fill:none;stroke:#0000ff;stroke-width:40;stroke-linecap:butt;stroke-linejoin:round;stroke-miterlimit:10;stroke-opacity:1;stroke-dasharray:none"
             id="path256" /><g
             id="g258"
             transform="scale(10,10)"><text
               transform="matrix(1,0,0,-1,173.917,341.417)"
               id="text260"><tspan
                 style="font-size:18px;font-variant:normal;font-weight:normal;writing-mode:lr-tb;fill:#000000;fill-opacity:1;fill-rule:nonzero;stroke:none;font-family:Helvetica;-inkscape-font-specification:Helvetica"
                 x="0 9"
                 y="0"
                 sodipodi:role="line"
                 id="tspan262">v1</tspan><tspan
                 style="font-size:18px;font-variant:normal;font-weight:normal;writing-mode:lr-tb;fill:#000000;fill-opacity:1;fill-rule:nonzero;stroke:none;font-family:Helvetica;-inkscape-font-specification:Helvetica"
                 x="0 9"
                 y="-121.083"
                 sodipodi:role="line"
                 id="tspan264">v5</tspan></text>
<text
               transform="matrix(0,1,1,0,102.75,404.083)"
               id="text266"><tspan
                 style="font-size:12px;font-variant:normal;font-weight:normal;writing-mode:lr-tb;fill:#000000;fill-opacity:1;fill-rule:nonzero;stroke:none;font-family:Symbol;-inkscape-font-specification:Symbol"
                 x="0"
                 y="0"
                 id="tspan268">χ</tspan></text>
<text
               transform="matrix(0,1,1,0,108.75,410.66659)"
               id="text270"><tspan
                 style="font-size:9px;font-variant:normal;font-weight:normal;writing-mode:lr-tb;fill:#000000;fill-opacity:1;fill-rule:nonzero;stroke:none;font-family:Helvetica;-inkscape-font-specification:Helvetica"
                 x="0"
                 y="0"
                 id="tspan272">3</tspan></text>
</g></g></g></g></g></svg>