<?xml version="1.0" encoding="UTF-8" standalone="no"?>
<!-- Created with Inkscape (http://www.inkscape.org/) -->

<svg
   xmlns:dc="http://purl.org/dc/elements/1.1/"
   xmlns:cc="http://creativecommons.org/ns#"
   xmlns:rdf="http://www.w3.org/1999/02/22-rdf-syntax-ns#"
   xmlns:svg="http://www.w3.org/2000/svg"
   xmlns="http://www.w3.org/2000/svg"
   xmlns:sodipodi="http://sodipodi.sourceforge.net/DTD/sodipodi-0.dtd"
   xmlns:inkscape="http://www.inkscape.org/namespaces/inkscape"
   id="svg2"
   version="1.1"
   inkscape:version="0.47 r22583"
   width="601.25165"
   height="459.42938"
   xml:space="preserve"
   sodipodi:docname="RT0_tri.eps"><metadata
     id="metadata8"><rdf:RDF><cc:Work
         rdf:about=""><dc:format>image/svg+xml</dc:format><dc:type
           rdf:resource="http://purl.org/dc/dcmitype/StillImage" /><dc:title></dc:title></cc:Work></rdf:RDF></metadata><defs
     id="defs6"><inkscape:perspective
       sodipodi:type="inkscape:persp3d"
       inkscape:vp_x="0 : 0.5 : 1"
       inkscape:vp_y="0 : 1000 : 0"
       inkscape:vp_z="1 : 0.5 : 1"
       inkscape:persp3d-origin="0.5 : 0.33333333 : 1"
       id="perspective10" /><clipPath
       clipPathUnits="userSpaceOnUse"
       id="clipPath20"><path
         d="m 1284,7162.4 0,-3660 4830,0 0,3660 -4830,0 z"
         id="path22" /></clipPath><clipPath
       clipPathUnits="userSpaceOnUse"
       id="clipPath32"><path
         d="m 1284,7162.4 0,-3660 4830,0 0,3660 -4830,0 z m 2688,-3084 120,0 0,36 -120,0 0,0 72,-18 -72,-18 z"
         clip-rule="evenodd"
         id="path34" /></clipPath><clipPath
       clipPathUnits="userSpaceOnUse"
       id="clipPath42"><path
         d="m 1284,7162.4 0,-3660 4830,0 0,3660 -4830,0 z"
         id="path44" /></clipPath><clipPath
       clipPathUnits="userSpaceOnUse"
       id="clipPath54"><path
         d="m 1284,7162.4 0,-3660 4830,0 0,3660 -4830,0 z m 3156,-1426.2 -79.8,89.4 -27,-24 79.8,-89.4 0,0 -34.2,65.4 61.2,-41.4 z"
         clip-rule="evenodd"
         id="path56" /></clipPath><clipPath
       clipPathUnits="userSpaceOnUse"
       id="clipPath64"><path
         d="m 1284,7162.4 0,-3660 4830,0 0,3660 -4830,0 z"
         id="path66" /></clipPath><clipPath
       clipPathUnits="userSpaceOnUse"
       id="clipPath76"><path
         d="m 1284,7162.4 0,-3660 4830,0 0,3660 -4830,0 z M 4956,5630 l 90.6,79.2 -24,27 -90.6,-79.2 0,0 66.6,33.6 -42.6,-60.6 z"
         clip-rule="evenodd"
         id="path78" /></clipPath><clipPath
       clipPathUnits="userSpaceOnUse"
       id="clipPath86"><path
         d="m 1284,7162.4 0,-3660 4830,0 0,3660 -4830,0 z"
         id="path88" /></clipPath><clipPath
       clipPathUnits="userSpaceOnUse"
       id="clipPath98"><path
         d="m 1284,7162.4 0,-3660 4830,0 0,3660 -4830,0 z m 2331,-3360 0,-120 36,0 0,120 0,0 -18,-72 -18,72 z"
         clip-rule="evenodd"
         id="path100" /></clipPath><clipPath
       clipPathUnits="userSpaceOnUse"
       id="clipPath108"><path
         d="m 1284,7162.4 0,-3660 4830,0 0,3660 -4830,0 z"
         id="path110" /></clipPath><clipPath
       clipPathUnits="userSpaceOnUse"
       id="clipPath122"><path
         d="m 1284,7162.4 0,-3660 4830,0 0,3660 -4830,0 z m 1036.8,-1699.8 -58.2,-105 31.2,-17.4 58.2,105 0,0 -50.4,-54.6 19.2,72 z"
         clip-rule="evenodd"
         id="path124" /></clipPath><clipPath
       clipPathUnits="userSpaceOnUse"
       id="clipPath132"><path
         d="m 1284,7162.4 0,-3660 4830,0 0,3660 -4830,0 z"
         id="path134" /></clipPath><clipPath
       clipPathUnits="userSpaceOnUse"
       id="clipPath144"><path
         d="m 1284,7162.4 0,-3660 4830,0 0,3660 -4830,0 z m 970.8,-1254 -106.8,53.4 -16.2,-32.4 106.8,-53.4 0,0 -55.8,48 72,-15.6 z"
         clip-rule="evenodd"
         id="path146" /></clipPath><clipPath
       clipPathUnits="userSpaceOnUse"
       id="clipPath154"><path
         d="m 1284,7162.4 0,-3660 4830,0 0,3660 -4830,0 z"
         id="path156" /></clipPath><clipPath
       clipPathUnits="userSpaceOnUse"
       id="clipPath166"><path
         d="m 720,7700 0,0 0,0 0,0 z"
         id="path168" /></clipPath></defs><sodipodi:namedview
     pagecolor="#ffffff"
     bordercolor="#666666"
     borderopacity="1"
     objecttolerance="10"
     gridtolerance="10"
     guidetolerance="10"
     inkscape:pageopacity="0"
     inkscape:pageshadow="2"
     inkscape:window-width="1920"
     inkscape:window-height="1003"
     id="namedview4"
     showgrid="false"
     inkscape:zoom="0.95353535"
     inkscape:cx="219.81276"
     inkscape:cy="274.41383"
     inkscape:window-x="0"
     inkscape:window-y="25"
     inkscape:window-maximized="1"
     inkscape:current-layer="g12" /><g
     id="g12"
     inkscape:groupmode="layer"
     inkscape:label="ink_ext_XXXXXX"
     transform="matrix(1.25,0,0,-1.25,-162.68724,895.06772)"><g
       id="g3188"><g
         transform="scale(0.1,0.1)"
         id="g16"><g
           id="g18"
           clip-path="url(#clipPath20)"><path
             d="m 3273,6976.4 0,-2880"
             style="fill:none;stroke:#000000;stroke-width:9;stroke-linecap:butt;stroke-linejoin:miter;stroke-miterlimit:10;stroke-opacity:1;stroke-dasharray:54;stroke-dashoffset:0"
             id="path24" /><path
             d="m 3273,4231.4 135,0 0,-135"
             style="fill:none;stroke:#000000;stroke-width:4.5;stroke-linecap:butt;stroke-linejoin:miter;stroke-miterlimit:10;stroke-opacity:1;stroke-dasharray:none"
             id="path26" /></g></g><g
         transform="scale(0.1,0.1)"
         id="g28"><g
           id="g30"
           clip-path="url(#clipPath32)"><path
             d="m 3633,4096.4 450,0"
             style="fill:none;stroke:#000000;stroke-width:18;stroke-linecap:butt;stroke-linejoin:miter;stroke-miterlimit:10;stroke-opacity:1;stroke-dasharray:none"
             id="path36" /></g></g><g
         transform="scale(0.1,0.1)"
         id="g38"><g
           id="g40"
           clip-path="url(#clipPath42)"><path
             d="m 3972,4078.4 72,18 -72,18 0,-36"
             style="fill:#000000;fill-opacity:1;fill-rule:evenodd;stroke:none"
             id="path46" /><path
             d="m 3972,4078.4 72,18 -72,18 0,-36 z"
             style="fill:none;stroke:#000000;stroke-width:18;stroke-linecap:butt;stroke-linejoin:miter;stroke-miterlimit:10;stroke-opacity:1;stroke-dasharray:none"
             id="path48" /></g></g><g
         transform="scale(0.1,0.1)"
         id="g50"><g
           id="g52"
           clip-path="url(#clipPath54)"><path
             d="m 4713,5401.4 -360,405"
             style="fill:none;stroke:#000000;stroke-width:18;stroke-linecap:butt;stroke-linejoin:miter;stroke-miterlimit:10;stroke-opacity:1;stroke-dasharray:none"
             id="path58" /></g></g><g
         transform="scale(0.1,0.1)"
         id="g60"><g
           id="g62"
           clip-path="url(#clipPath64)"><path
             d="m 4440,5736.2 -61.2,41.4 34.2,-65.4 27,24"
             style="fill:#000000;fill-opacity:1;fill-rule:evenodd;stroke:none"
             id="path68" /><path
             d="m 4440,5736.2 -61.2,41.4 34.2,-65.4 27,24 z"
             style="fill:none;stroke:#000000;stroke-width:18;stroke-linecap:butt;stroke-linejoin:miter;stroke-miterlimit:10;stroke-opacity:1;stroke-dasharray:none"
             id="path70" /></g></g><g
         transform="scale(0.1,0.1)"
         id="g72"><g
           id="g74"
           clip-path="url(#clipPath76)"><path
             d="m 4668,5401.4 360,315"
             style="fill:none;stroke:#000000;stroke-width:18;stroke-linecap:butt;stroke-linejoin:miter;stroke-miterlimit:10;stroke-opacity:1;stroke-dasharray:none"
             id="path80" /></g></g><g
         transform="scale(0.1,0.1)"
         id="g82"><g
           id="g84"
           clip-path="url(#clipPath86)"><path
             d="m 4956,5630 42.6,60.6 -66.6,-33.6 24,-27"
             style="fill:#000000;fill-opacity:1;fill-rule:evenodd;stroke:none"
             id="path90" /><path
             d="m 4956,5630 42.6,60.6 -66.6,-33.6 24,-27 z"
             style="fill:none;stroke:#000000;stroke-width:18;stroke-linecap:butt;stroke-linejoin:miter;stroke-miterlimit:10;stroke-opacity:1;stroke-dasharray:none"
             id="path92" /></g></g><g
         transform="scale(0.1,0.1)"
         id="g94"><g
           id="g96"
           clip-path="url(#clipPath98)"><path
             d="m 3633,4096.4 0,-405"
             style="fill:none;stroke:#000000;stroke-width:18;stroke-linecap:butt;stroke-linejoin:miter;stroke-miterlimit:10;stroke-opacity:1;stroke-dasharray:none"
             id="path102" /></g></g><g
         transform="scale(0.1,0.1)"
         id="g104"><g
           id="g106"
           clip-path="url(#clipPath108)"><path
             d="m 3615,3802.4 18,-72 18,72 -36,0"
             style="fill:#000000;fill-opacity:1;fill-rule:evenodd;stroke:none"
             id="path112" /><path
             d="m 3615,3802.4 18,-72 18,72 -36,0 z"
             style="fill:none;stroke:#000000;stroke-width:18;stroke-linecap:butt;stroke-linejoin:miter;stroke-miterlimit:10;stroke-opacity:1;stroke-dasharray:none"
             id="path114" /><path
             d="m 1473,4096.4 4455,0 -2655,2880 -1800,-2880 z"
             style="fill:none;stroke:#000000;stroke-width:9;stroke-linecap:butt;stroke-linejoin:miter;stroke-miterlimit:10;stroke-opacity:1;stroke-dasharray:none"
             id="path116" /></g></g><g
         transform="scale(0.1,0.1)"
         id="g118"><g
           id="g120"
           clip-path="url(#clipPath122)"><path
             d="m 2508,5761.4 -225,-405"
             style="fill:none;stroke:#000000;stroke-width:18;stroke-linecap:butt;stroke-linejoin:miter;stroke-miterlimit:10;stroke-opacity:1;stroke-dasharray:none"
             id="path126" /></g></g><g
         transform="scale(0.1,0.1)"
         id="g128"><g
           id="g130"
           clip-path="url(#clipPath132)"><path
             d="m 2320.8,5462.6 -19.2,-72 50.4,54.6 -31.2,17.4"
             style="fill:#000000;fill-opacity:1;fill-rule:evenodd;stroke:none"
             id="path136" /><path
             d="m 2320.8,5462.6 -19.2,-72 50.4,54.6 -31.2,17.4 z"
             style="fill:none;stroke:#000000;stroke-width:18;stroke-linecap:butt;stroke-linejoin:miter;stroke-miterlimit:10;stroke-opacity:1;stroke-dasharray:none"
             id="path138" /></g></g><g
         transform="scale(0.1,0.1)"
         id="g140"><g
           id="g142"
           clip-path="url(#clipPath144)"><path
             d="m 2508,5761.4 -360,180"
             style="fill:none;stroke:#000000;stroke-width:18;stroke-linecap:butt;stroke-linejoin:miter;stroke-miterlimit:10;stroke-opacity:1;stroke-dasharray:none"
             id="path148" /></g></g><g
         transform="scale(0.1,0.1)"
         id="g150"><g
           id="g152"
           clip-path="url(#clipPath154)"><path
             d="m 2254.8,5908.4 -72,15.6 55.8,-48 16.2,32.4"
             style="fill:#000000;fill-opacity:1;fill-rule:evenodd;stroke:none"
             id="path158" /><path
             d="m 2254.8,5908.4 -72,15.6 55.8,-48 16.2,32.4 z"
             style="fill:none;stroke:#000000;stroke-width:18;stroke-linecap:butt;stroke-linejoin:miter;stroke-miterlimit:10;stroke-opacity:1;stroke-dasharray:none"
             id="path160" /></g></g><g
         transform="scale(0.1,0.1)"
         id="g162"><g
           id="g164"
           clip-path="url(#clipPath166)"><g
             id="g170"
             transform="matrix(1042.8,0,0,-4.8,241.08,5400.68)"><rect
               x="0"
               y="0"
               width="1"
               height="1"
               transform="matrix(1,0,0,-1,0,1)"
               style="fill:#000000;fill-opacity:1;fill-rule:nonzero"
               id="rect172" /></g></g></g><g
         id="g174"><text
           transform="matrix(1,0,0,-1,362.7,414.74)"
           id="text176"><tspan
             style="font-size:17.2154007px;font-variant:normal;font-weight:normal;writing-mode:lr-tb;fill:#000000;fill-opacity:1;fill-rule:nonzero;stroke:none;font-family:CM Sans;-inkscape-font-specification:CMMI12"
             x="0"
             y="0"
             id="tspan178">e</tspan></text>
<text
           transform="matrix(1,0,0,-1,370.5,412.09977)"
           id="text180"><tspan
             style="font-size:11.9552002px;font-variant:normal;font-weight:normal;writing-mode:lr-tb;fill:#000000;fill-opacity:1;fill-rule:nonzero;stroke:none;font-family:CM Roman;-inkscape-font-specification:CMR12"
             x="0"
             y="0"
             id="tspan182">1</tspan></text>
<text
           transform="matrix(1,0,0,-1,452.7,527.23977)"
           id="text184"><tspan
             style="font-size:17.2154007px;font-variant:normal;font-weight:normal;writing-mode:lr-tb;fill:#000000;fill-opacity:1;fill-rule:nonzero;stroke:none;font-family:CM Sans;-inkscape-font-specification:CMMI12"
             x="0"
             y="0"
             id="tspan186">e</tspan></text>
<text
           transform="matrix(1,0,0,-1,460.5,524.71985)"
           id="text188"><tspan
             style="font-size:11.9552002px;font-variant:normal;font-weight:normal;writing-mode:lr-tb;fill:#000000;fill-opacity:1;fill-rule:nonzero;stroke:none;font-family:CM Roman;-inkscape-font-specification:CMR12"
             x="0"
             y="0"
             id="tspan190">2</tspan></text>
<text
           transform="matrix(1,0,0,-1,259.2,563.23975)"
           id="text192"><tspan
             style="font-size:17.2154007px;font-variant:normal;font-weight:normal;writing-mode:lr-tb;fill:#000000;fill-opacity:1;fill-rule:nonzero;stroke:none;font-family:CM Sans;-inkscape-font-specification:CMMI12"
             x="0"
             y="0"
             id="tspan194">e</tspan></text>
<text
           transform="matrix(1,0,0,-1,267,560.71983)"
           id="text196"><tspan
             style="font-size:11.9552002px;font-variant:normal;font-weight:normal;writing-mode:lr-tb;fill:#000000;fill-opacity:1;fill-rule:nonzero;stroke:none;font-family:CM Roman;-inkscape-font-specification:CMR12"
             x="0"
             y="0"
             id="tspan198">3</tspan></text>
<text
           transform="matrix(1,0,0,-1,336.6238,486.13973)"
           id="text200"><tspan
             style="font-size:17.2154007px;font-variant:normal;font-weight:normal;writing-mode:lr-tb;fill:#000000;fill-opacity:1;fill-rule:nonzero;stroke:none;font-family:CM Sans;-inkscape-font-specification:CMMI12"
             x="0"
             y="0"
             id="tspan202">d</tspan></text>
<text
           transform="matrix(1,0,0,-1,345.38396,483.4995)"
           id="text204"><tspan
             style="font-size:11.9552002px;font-variant:normal;font-weight:normal;writing-mode:lr-tb;fill:#000000;fill-opacity:1;fill-rule:nonzero;stroke:none;font-family:CM Roman;-inkscape-font-specification:CMR12"
             x="0"
             y="0"
             id="tspan206">1</tspan></text>
<text
           transform="matrix(1,0,0,-1,323.02806,706.6395)"
           id="text208"><tspan
             style="font-size:17.2154007px;font-variant:normal;font-weight:normal;writing-mode:lr-tb;fill:#000000;fill-opacity:1;fill-rule:nonzero;stroke:none;font-family:CM Sans;-inkscape-font-specification:CMMI12"
             x="0"
             y="0"
             id="tspan210">ν</tspan></text>
<text
           transform="matrix(1,0,0,-1,331.30775,704.11919)"
           id="text212"><tspan
             style="font-size:11.9552002px;font-variant:normal;font-weight:normal;writing-mode:lr-tb;fill:#000000;fill-opacity:1;fill-rule:nonzero;stroke:none;font-family:CM Roman;-inkscape-font-specification:CMR12"
             x="0"
             y="0"
             id="tspan214">1</tspan></text>
<text
           transform="matrix(1,0,0,-1,129.52775,396.13919)"
           id="text216"><tspan
             style="font-size:17.2154007px;font-variant:normal;font-weight:normal;writing-mode:lr-tb;fill:#000000;fill-opacity:1;fill-rule:nonzero;stroke:none;font-family:CM Sans;-inkscape-font-specification:CMMI12"
             x="0"
             y="0"
             id="tspan218">ν</tspan></text>
<text
           transform="matrix(1,0,0,-1,137.80744,393.49896)"
           id="text220"><tspan
             style="font-size:11.9552002px;font-variant:normal;font-weight:normal;writing-mode:lr-tb;fill:#000000;fill-opacity:1;fill-rule:nonzero;stroke:none;font-family:CM Roman;-inkscape-font-specification:CMR12"
             x="0"
             y="0"
             id="tspan222">2</tspan></text>
<text
           transform="matrix(1,0,0,-1,597.52744,396.13919)"
           id="text224"><tspan
             style="font-size:17.2154007px;font-variant:normal;font-weight:normal;writing-mode:lr-tb;fill:#000000;fill-opacity:1;fill-rule:nonzero;stroke:none;font-family:CM Sans;-inkscape-font-specification:CMMI12"
             x="0"
             y="0"
             id="tspan226">ν</tspan></text>
<text
           transform="matrix(1,0,0,-1,605.80713,393.61888)"
           id="text228"><tspan
             style="font-size:11.9552002px;font-variant:normal;font-weight:normal;writing-mode:lr-tb;fill:#000000;fill-opacity:1;fill-rule:nonzero;stroke:none;font-family:CM Roman;-inkscape-font-specification:CMR12"
             x="0"
             y="0"
             id="tspan230">3</tspan></text>
<text
           transform="matrix(1,0,0,-1,403.95513,391.63919)"
           id="text232"><tspan
             style="font-size:17.2154007px;font-variant:normal;font-weight:normal;writing-mode:lr-tb;fill:#000000;fill-opacity:1;fill-rule:nonzero;stroke:none;font-family:CM Sans;-inkscape-font-specification:CMBX12"
             x="0"
             y="0"
             id="tspan234">t</tspan></text>
<text
           transform="matrix(1,0,0,-1,411.51529,389.11888)"
           id="text236"><tspan
             style="font-size:11.9552002px;font-variant:normal;font-weight:normal;writing-mode:lr-tb;fill:#000000;fill-opacity:1;fill-rule:nonzero;stroke:none;font-family:CM Roman;-inkscape-font-specification:CMR12"
             x="0"
             y="0"
             id="tspan238">1</tspan></text>
<text
           transform="matrix(1,0,0,-1,439.95509,585.13888)"
           id="text240"><tspan
             style="font-size:17.2154007px;font-variant:normal;font-weight:normal;writing-mode:lr-tb;fill:#000000;fill-opacity:1;fill-rule:nonzero;stroke:none;font-family:CM Sans;-inkscape-font-specification:CMBX12"
             x="0"
             y="0"
             id="tspan242">t</tspan></text>
<text
           transform="matrix(1,0,0,-1,447.51525,582.49865)"
           id="text244"><tspan
             style="font-size:11.9552002px;font-variant:normal;font-weight:normal;writing-mode:lr-tb;fill:#000000;fill-opacity:1;fill-rule:nonzero;stroke:none;font-family:CM Roman;-inkscape-font-specification:CMR12"
             x="0"
             y="0"
             id="tspan246">2</tspan></text>
<text
           transform="matrix(1,0,0,-1,205.95525,535.63885)"
           id="text248"><tspan
             style="font-size:17.2154007px;font-variant:normal;font-weight:normal;writing-mode:lr-tb;fill:#000000;fill-opacity:1;fill-rule:nonzero;stroke:none;font-family:CM Sans;-inkscape-font-specification:CMBX12"
             x="0"
             y="0"
             id="tspan250">t</tspan></text>
<text
           transform="matrix(1,0,0,-1,213.51541,533.11893)"
           id="text252"><tspan
             style="font-size:11.9552002px;font-variant:normal;font-weight:normal;writing-mode:lr-tb;fill:#000000;fill-opacity:1;fill-rule:nonzero;stroke:none;font-family:CM Roman;-inkscape-font-specification:CMR12"
             x="0"
             y="0"
             id="tspan254">3</tspan></text>
<text
           transform="matrix(1,0,0,-1,358.99141,351.13893)"
           id="text256"><tspan
             style="font-size:17.2154007px;font-variant:normal;font-weight:normal;writing-mode:lr-tb;fill:#000000;fill-opacity:1;fill-rule:nonzero;stroke:none;font-family:CM Sans;-inkscape-font-specification:CMBX12"
             x="0"
             y="0"
             id="tspan258">n</tspan></text>
<text
           transform="matrix(1,0,0,-1,369.79141,348.4987)"
           id="text260"><tspan
             style="font-size:11.9552002px;font-variant:normal;font-weight:normal;writing-mode:lr-tb;fill:#000000;fill-opacity:1;fill-rule:nonzero;stroke:none;font-family:CM Roman;-inkscape-font-specification:CMR12"
             x="0"
             y="0"
             id="tspan262">1</tspan></text>
<text
           transform="matrix(1,0,0,-1,507.49141,576.1387)"
           id="text264"><tspan
             style="font-size:17.2154007px;font-variant:normal;font-weight:normal;writing-mode:lr-tb;fill:#000000;fill-opacity:1;fill-rule:nonzero;stroke:none;font-family:CM Sans;-inkscape-font-specification:CMBX12"
             x="0"
             y="0"
             id="tspan266">n</tspan></text>
<text
           transform="matrix(1,0,0,-1,518.29141,573.49886)"
           id="text268"><tspan
             style="font-size:11.9552002px;font-variant:normal;font-weight:normal;writing-mode:lr-tb;fill:#000000;fill-opacity:1;fill-rule:nonzero;stroke:none;font-family:CM Roman;-inkscape-font-specification:CMR12"
             x="0"
             y="0"
             id="tspan270">2</tspan></text>
<text
           transform="matrix(1,0,0,-1,196.99141,589.63906)"
           id="text272"><tspan
             style="font-size:17.2154007px;font-variant:normal;font-weight:normal;writing-mode:lr-tb;fill:#000000;fill-opacity:1;fill-rule:nonzero;stroke:none;font-family:CM Sans;-inkscape-font-specification:CMBX12"
             x="0"
             y="0"
             id="tspan274">n</tspan></text>
<text
           transform="matrix(1,0,0,-1,207.79141,587.11914)"
           id="text276"><tspan
             style="font-size:11.9552002px;font-variant:normal;font-weight:normal;writing-mode:lr-tb;fill:#000000;fill-opacity:1;fill-rule:nonzero;stroke:none;font-family:CM Roman;-inkscape-font-specification:CMR12"
             x="0"
             y="0"
             id="tspan278">3</tspan></text>
</g></g></g></svg>